<svg width="24" height="25" viewBox="0 0 24 25" fill="none" xmlns="http://www.w3.org/2000/svg">
<g id="Group 289368">
<path id="Path" d="M21.6128 23.4952L21.5794 23.2349C21.5747 23.15 21.5555 23.0664 21.5225 22.9873L21.335 22.5429C21.2211 22.2466 21.0835 21.959 20.9234 21.6826C20.6122 21.1333 20.2909 20.5937 19.9596 20.0572C19.6282 19.5207 19.2902 18.9873 18.9555 18.4699C18.7815 18.2064 18.6209 17.9429 18.4268 17.6826L17.8612 16.9111C17.0923 15.8676 16.2551 14.871 15.3545 13.927C14.8626 13.4105 14.319 12.9406 13.7314 12.5239C13.3662 12.27 12.9621 12.0709 12.5332 11.9334C12.385 11.8929 12.2341 11.8621 12.0814 11.8413C11.9237 11.8239 11.7649 11.8175 11.6062 11.8223C11.448 11.8344 11.2918 11.8642 11.141 11.9112C10.9904 11.9588 10.8498 12.0286 10.6992 12.0794C10.6114 12.1555 10.5161 12.2235 10.4148 12.2826L10.1905 12.4223C10.0433 12.5175 9.93285 12.6191 9.80233 12.7175C9.67181 12.8159 9.55133 12.9143 9.43085 13.0127L9.09618 13.3302C8.86191 13.5334 8.65441 13.7429 8.42684 13.9651C8.19926 14.1873 8.0085 14.3873 7.81105 14.6C7.01788 15.4699 6.2883 16.3619 5.58549 17.2699C4.19327 19.0815 2.90144 20.9503 1.71002 22.8762C1.53265 23.1587 2.50319 23.7365 2.69395 23.4794C4.03263 21.6953 5.48175 19.9651 7.00115 18.3207C7.76085 17.5016 8.54063 16.7048 9.34383 15.9619C9.74878 15.5905 10.1571 15.2286 10.5754 14.9016L10.8867 14.6572L11.2012 14.4413C11.3019 14.3669 11.4069 14.298 11.5158 14.235C11.6095 14.1905 11.7535 14.0858 11.7501 14.1207C11.7501 14.1207 11.7501 14.0921 11.7501 14.1207C11.9192 14.2006 12.0766 14.3009 12.2186 14.4191C12.6341 14.765 13.015 15.1465 13.3565 15.5588C14.1115 16.4683 14.8046 17.4226 15.4315 18.4159C16.0673 19.4286 16.7367 20.4318 17.3424 21.473C17.9482 22.5143 18.4468 23.6222 19.2634 24.4857C19.4676 24.6159 21.6329 23.8222 21.6128 23.4952Z" fill="#6D38FB"/>
<path id="Path_2" d="M23.4234 14.3242C23.0336 12.7949 22.1655 11.6366 21.4121 10.3806C20.6587 9.12465 19.8398 7.92401 18.9554 6.75265C18.0773 5.56171 17.1347 4.41904 16.1318 3.32969C15.6046 2.75926 15.0376 2.22649 14.435 1.73534C14.1042 1.46494 13.7514 1.22224 13.3802 1.00975C12.9187 0.734972 12.4021 0.56394 11.8669 0.50867C11.4967 0.47607 11.1241 0.535327 10.7826 0.681119C10.6942 0.720165 10.609 0.768972 10.5271 0.814524C10.4956 0.830791 10.4659 0.85043 10.4387 0.873092L10.3601 0.902377L10.1078 1.08459C9.78452 1.33099 9.47607 1.59609 9.18411 1.87851C8.89585 2.13881 8.64035 2.41213 8.36847 2.68219L7.61507 3.50539C6.63237 4.62794 5.77743 5.78303 4.94213 6.98692C3.28688 9.35792 1.7562 11.8124 0.356215 14.3404C0.159675 14.6918 1.12927 15.2515 1.33891 14.9229C2.89623 12.5511 4.57559 10.2607 6.37032 8.06067C7.26457 6.9674 8.19486 5.90667 9.16773 4.92078L9.90803 4.19194C10.1603 3.97068 10.4092 3.73641 10.6614 3.54118C10.9064 3.33973 11.1622 3.15182 11.4279 2.97828L11.6179 2.85138L11.6671 2.8221L11.69 2.8221C11.6605 2.77329 11.7621 2.92622 11.6245 2.70822L11.6081 2.67893L11.6081 2.69846C11.6108 2.72333 11.6108 2.74842 11.6081 2.77329C11.6117 2.80247 11.6117 2.83197 11.6081 2.86115C11.7827 2.91354 11.9475 2.99376 12.0962 3.09867C12.3393 3.25934 12.5694 3.43886 12.7841 3.63554C13.2761 4.0727 13.7379 4.5423 14.1664 5.04117C15.047 6.11168 15.8692 7.22823 16.6297 8.38604C17.3995 9.55089 18.1856 10.719 18.9226 11.9196C19.6597 13.1203 20.2788 14.3958 21.1828 15.4207C21.3892 15.5964 23.4758 14.7049 23.4234 14.3242Z" fill="#6D38FB"/>
</g>
</svg>
