<svg width="158" height="103" viewBox="0 0 158 103" fill="none" xmlns="http://www.w3.org/2000/svg">
<g id="Frame 5107">
<g id="Group 289378">
<path id="Rectangle 98" d="M47.7925 33.8904H109.622L110.5 56.8782H97V51.4998H91V56.8782H68V51.4998H62V56.8782H47.7925V33.8904Z" fill="#BEEB42"/>
<path id="Vector 531" d="M47 74.3172V36.2684C47 35.0001 48.5854 33.0977 51.7561 33.0977H104.073C106.916 33.0977 109.051 34.2777 110.279 35.3152C110.94 35.8737 111.207 36.7317 111.207 37.5971V71.1464C111.207 79 110.5 79.7231 105.5 79.8659C87.0041 80.3944 54.3424 79.8659 52.5488 79.8659C47 79.8659 47 75.3741 47 74.3172Z" stroke="black" stroke-width="3"/>
<path id="Vector 532" d="M47 57.6707H62" stroke="black" stroke-width="3"/>
<path id="Vector 533" d="M67.6094 57.6707H91.3899" stroke="black" stroke-width="3"/>
<path id="Vector 534" d="M97 58H111" stroke="black" stroke-width="3"/>
<path id="Vector 535" d="M67.6094 32V25.5671C67.6094 23.5 68.5 22 71 22C72.2683 22 81.3492 22 85.8411 22C87.5 22 89.8045 22 89.8045 25.5671C89.8045 27.4695 89.8045 30.811 89.8045 32" stroke="black" stroke-width="3"/>
<rect id="Rectangle 96" x="61.854" y="51.1221" width="6.7561" height="11.5122" stroke="black" stroke-width="2"/>
<rect id="Rectangle 97" x="90.3906" y="51.1221" width="6.7561" height="11.5122" stroke="black" stroke-width="2"/>
</g>
</g>
</svg>
