<svg width="158" height="103" viewBox="0 0 158 103" fill="none" xmlns="http://www.w3.org/2000/svg">
<g id="Frame 5105">
<g id="Group 289374">
<path id="Vector 499" d="M83.9033 51.0176H106.341C108.112 51.0176 109.883 53.7759 109.883 55.446C109.883 57.5126 109.883 60.1696 106.341 60.1696C103.732 60.1696 100.534 60.2681 99.2552 60.1696" stroke="black" stroke-width="3" stroke-linecap="round"/>
<path id="Vector 500" d="M66.1897 83.1975C68.8467 84.5752 75.637 87.3307 81.5415 87.3307C87.4461 87.3307 103.591 87.3307 106.045 87.3307C108.5 87.3307 109 80.5405 105.16 80.5405C103.066 80.5405 101.602 80.4723 100.551 80.3747C98.723 80.2049 98.6704 79.3078 100.503 79.2105C103.769 79.0371 108.685 79.0441 109.883 78.4739C111.5 77.7045 112 72.5266 109.883 71.7527C107.767 70.9788 103 69.9998 99.0002 69.9998C96.9259 69.9998 103.347 69.4652 107.618 69.0021C109.025 68.8495 110.537 68.0721 110.949 66.7178C111.022 66.475 111.064 66.1821 111.064 65.779C111.064 64.3029 111.95 60.1697 106.045 60.1697" stroke="black" stroke-width="2.5" stroke-linecap="round"/>
<path id="Vector 498" d="M65.0261 51.0178C65.4454 52.295 65.5994 53.601 65.5994 54.5606C65.6978 61.7444 65.8355 77.0569 65.5994 80.8359C65.3992 84.0384 63.4886 85.9122 62.1317 86.7088C61.7084 86.9573 61.2144 87.0356 60.7235 87.0356H51C48.7909 87.0356 47 85.2448 47 83.0356V50.5894C47 48.3803 48.7896 46.5894 50.9988 46.5894C53.6003 46.5894 56.8287 46.5894 59.6948 46.5894C62.7126 46.5894 64.2844 48.7584 65.0261 51.0178ZM65.0261 51.0178L78.9056 44.0703C79.8386 43.6033 80.5522 42.7902 80.8941 41.8045L84.4467 31.5646C85.0052 29.955 86.5609 28.8997 88.1063 29.617C89.2989 30.1705 90.6148 31.0209 91.8746 32.1232C94.6586 34.5592 95.0041 37.6735 94.5317 39.7992C94.0593 41.9248 90.8906 48.4592 89.5128 51.0178" stroke="black" stroke-width="3" stroke-linecap="round"/>
<path id="Vector 501" d="M78.2941 25.0376L73.8657 20.6091" stroke="#BEEB42" stroke-width="3" stroke-linecap="round"/>
<path id="Vector 502" d="M87.446 22.3805V14.9998" stroke="#BEEB42" stroke-width="3" stroke-linecap="round"/>
<path id="Vector 503" d="M97.189 24.7423L101.322 20.6091" stroke="#BEEB42" stroke-width="3" stroke-linecap="round"/>
<ellipse id="Ellipse 48" cx="56.7428" cy="77.8832" rx="1.77137" ry="1.77137" fill="black"/>
</g>
</g>
</svg>
