<svg width="158" height="103" viewBox="0 0 158 103" fill="none" xmlns="http://www.w3.org/2000/svg">
<g id="Frame 5106">
<g id="Group 289375">
<rect id="Rectangle 86" x="50" y="31" width="58" height="35" fill="#BEEB42"/>
<rect id="Rectangle 87" x="73" y="23" width="30" height="16" fill="white"/>
<path id="Vector 504" d="M107.841 26.9731C112.028 26.9732 112.028 26.5222 112.028 31.1597C112.028 35.7971 112.028 59.07 112.028 70.1268M68.0689 26.973L50.1964 26.973C47.1348 26.9731 45.8801 26.9087 46.009 31.1597V59.1773V64.4777C46.009 65.0177 46.086 65.5657 46.0925 66.1056C46.107 67.2971 46.0924 69.1606 48.5841 69.1606C49.8739 69.1606 51.806 69.1606 52.6108 69.1606C57.6347 69.1606 71.8797 69.1606 78.3743 69.1606" stroke="black" stroke-width="3" stroke-linecap="round"/>
<path id="Ellipse 49" d="M102.797 50.8041C102.797 55.1095 99.2399 58.6434 94.7971 58.6434C90.3544 58.6434 86.7969 55.1095 86.7969 50.8041C86.7969 46.4987 90.3544 42.9648 94.7971 42.9648C99.2399 42.9648 102.797 46.4987 102.797 50.8041Z" fill="white" stroke="black" stroke-width="3"/>
<path id="Vector 505" d="M81.5933 71.1176V78.1252C81.5933 78.4807 81.6483 78.8344 81.6857 79.188C81.817 80.4305 81.5661 81.596 85.9408 81.5593C92.328 81.5056 105.365 81.6863 106.23 81.3982C107.679 80.9152 107.571 79.4123 107.679 78.3388C107.679 76.0845 107.614 71.3183 107.357 70.2877C107.035 68.9996 106.069 66.7453 105.102 65.4571C104.33 64.4266 102.848 62.8807 100.433 62.7197H88.3562C86.4239 62.7197 85.0713 64.3621 84.1696 65.1351C83.3504 65.8372 82.2477 68.4088 81.7308 70.1212C81.6333 70.444 81.5933 70.7804 81.5933 71.1176Z" fill="white" stroke="black" stroke-width="3" stroke-linecap="round"/>
<path id="Ellipse 50" d="M67.0507 41.7871C67.0507 44.4477 64.7642 46.7279 61.7878 46.7279C58.8114 46.7279 56.5249 44.4477 56.5249 41.7871C56.5249 39.1264 58.8114 36.8462 61.7878 36.8462C64.7642 36.8462 67.0507 39.1264 67.0507 41.7871Z" fill="white" stroke="black" stroke-width="3"/>
<path id="Vector 506" d="M52.7705 56.3123V61.0838C52.7705 61.4268 52.8181 61.7692 52.8464 62.111C52.9158 62.9514 52.9018 63.7056 55.7762 63.6806C60.1921 63.642 69.2056 63.7717 69.803 63.565C70.8049 63.2183 70.7307 62.1398 70.8049 61.3694C70.8049 59.7516 70.7604 56.331 70.5823 55.5914C70.3596 54.667 69.6917 53.0491 69.0238 52.1247C68.4894 51.3851 67.4652 50.2757 65.7954 50.1602H57.4461C56.1102 50.1602 55.1751 51.3389 54.5517 51.8935C54.0036 52.3812 53.272 54.1251 52.9015 55.351C52.8073 55.6623 52.7705 55.987 52.7705 56.3123Z" fill="white" stroke="black" stroke-width="3" stroke-linecap="round"/>
<path id="Vector 508" d="M72.2544 30.0325C72.2544 31.3743 72.2544 34.2512 72.2544 35.0241C72.2544 35.9903 73.5426 37.4395 74.3477 37.9225C74.9918 38.309 73.6499 40.9819 72.8985 42.2701" stroke="black" stroke-width="3" stroke-linecap="round"/>
<g id="Ellipse 51">
<circle cx="79.5001" cy="30.1935" r="1.93226" fill="white"/>
<circle cx="79.5001" cy="30.1935" r="1.93226" fill="white"/>
<circle cx="79.5001" cy="30.1935" r="1.93226" fill="white"/>
<circle cx="79.5001" cy="30.1935" r="1.93226" fill="white"/>
<circle cx="79.5001" cy="30.1935" r="1.93226" fill="white"/>
<circle cx="79.5001" cy="30.1935" r="1.93226" fill="#BEEB42"/>
</g>
<g id="Ellipse 52">
<circle cx="87.8732" cy="30.1935" r="1.93226" fill="white"/>
<circle cx="87.8732" cy="30.1935" r="1.93226" fill="white"/>
<circle cx="87.8732" cy="30.1935" r="1.93226" fill="white"/>
<circle cx="87.8732" cy="30.1935" r="1.93226" fill="white"/>
<circle cx="87.8732" cy="30.1935" r="1.93226" fill="white"/>
<circle cx="87.8732" cy="30.1935" r="1.93226" fill="#BEEB42"/>
</g>
<g id="Ellipse 53">
<circle cx="96.5685" cy="30.5155" r="1.93226" fill="white"/>
<circle cx="96.5685" cy="30.5155" r="1.93226" fill="white"/>
<circle cx="96.5685" cy="30.5155" r="1.93226" fill="white"/>
<circle cx="96.5685" cy="30.5155" r="1.93226" fill="white"/>
<circle cx="96.5685" cy="30.5155" r="1.93226" fill="white"/>
<circle cx="96.5685" cy="30.5155" r="1.93226" fill="#BEEB42"/>
</g>
<path id="Vector 507" d="M72.2544 30.5154V25.8458C72.2544 23.5915 73.768 22.3999 75.3138 22.1423C76.8596 21.8846 92.1674 22.0349 99.6281 22.1423C100.809 22.2496 103.203 22.9796 103.332 25.0407C103.46 27.1018 103.385 32.1256 103.332 34.38C103.385 35.3461 102.881 37.858 100.433 38.2445C98.1367 38.6071 87.6278 38.2892 81.7283 38.2486C81.0076 38.2437 80.3007 38.4392 79.6815 38.8081L73.0595 42.7531" stroke="black" stroke-width="3" stroke-linecap="round"/>
</g>
</g>
</svg>
