<svg width="192" height="115" viewBox="0 0 192 115" fill="none" xmlns="http://www.w3.org/2000/svg">
<g id="Frame 5104">
<g id="Group 289373">
<path id="Vector 493" d="M75.7413 20H114.549C120.299 20 121.161 24.9827 120.874 27.4741V90.1423C120.874 94.0518 119.723 96.1791 114.549 96.1791H74.3025C66.4834 96.1791 66.3506 92.1545 66.5423 90.1423C66.6381 74.3316 66.7723 39.6053 66.5423 30.6363C66.3123 21.6673 68.5536 20 75.7413 20Z" stroke="#202020" stroke-width="4"/>
<path id="Rectangle 81" d="M73.5029 33.6362C73.5029 32.8078 74.1745 32.1362 75.0029 32.1362H79.3518C80.1802 32.1362 80.8518 32.8078 80.8518 33.6362V37.4101C80.8518 38.2386 80.1802 38.9101 79.3518 38.9101H75.0029C74.1745 38.9101 73.5029 38.2385 73.5029 37.4101V33.6362Z" stroke="#202020" stroke-width="3"/>
<path id="Rectangle 82" d="M73.5029 49.1594C73.5029 48.331 74.1745 47.6594 75.0029 47.6594H79.3518C80.1802 47.6594 80.8518 48.331 80.8518 49.1594V52.9333C80.8518 53.7617 80.1802 54.4333 79.3518 54.4333H75.0029C74.1745 54.4333 73.5029 53.7617 73.5029 52.9333V49.1594Z" stroke="#202020" stroke-width="3"/>
<path id="Rectangle 83" d="M73.5029 64.6829C73.5029 63.8544 74.1745 63.1829 75.0029 63.1829H79.3518C80.1802 63.1829 80.8518 63.8544 80.8518 64.6829V68.4568C80.8518 69.2852 80.1802 69.9568 79.3518 69.9568H75.0029C74.1745 69.9568 73.5029 69.2852 73.5029 68.4568V64.6829Z" stroke="#202020" stroke-width="3"/>
<path id="Rectangle 84" d="M73.5029 80.2061C73.5029 79.3776 74.1745 78.7061 75.0029 78.7061H79.3518C80.1802 78.7061 80.8518 79.3776 80.8518 80.2061V83.9799C80.8518 84.8084 80.1802 85.4799 79.3518 85.4799H75.0029C74.1745 85.4799 73.5029 84.8084 73.5029 83.9799V80.2061Z" stroke="#202020" stroke-width="3"/>
<path id="Vector 494" d="M86.9512 35.2358H113.973" stroke="#202020" stroke-width="4" stroke-linecap="round"/>
<path id="Vector 495" d="M86.9512 50.759H113.973" stroke="#202020" stroke-width="4" stroke-linecap="round"/>
<path id="Vector 496" d="M86.9512 66.2822H113.973" stroke="#202020" stroke-width="4" stroke-linecap="round"/>
<path id="Vector 497" d="M86.9512 81.8054H113.973" stroke="#202020" stroke-width="4" stroke-linecap="round"/>
<path id="Ellipse 47" d="M137.497 74.3522C137.497 81.1199 131.833 86.7045 124.723 86.7045C117.613 86.7045 111.949 81.1199 111.949 74.3522C111.949 67.5845 117.613 62 124.723 62C131.833 62 137.497 67.5845 137.497 74.3522Z" fill="#BEEB42" stroke="#202020" stroke-width="4"/>
<path id="Line 16" d="M120.226 73.5908L123.603 77.8121" stroke="#202020" stroke-width="2.4" stroke-linecap="round"/>
<path id="Line 17" d="M123.539 77.5825L131.982 70.8285" stroke="#202020" stroke-width="2.4" stroke-linecap="round"/>
</g>
</g>
</svg>
