<svg width="1440" height="298" viewBox="0 0 1440 298" fill="none" xmlns="http://www.w3.org/2000/svg">
<path d="M135 296.813L134.961 297.812L135 296.813ZM401 24.8126L400.038 25.086L401 24.8126ZM462 141.812L461.727 142.775L462 141.812ZM821 234L821.326 234.945L821 234ZM1519.58 46.218C1520.08 46.4525 1520.67 46.2373 1520.91 45.7373C1521.14 45.2373 1520.92 44.6418 1520.42 44.4073L1519.58 46.218ZM701 141.812L701.215 140.836L701 141.812ZM-14.3321 165.07C-14.0039 165.514 -13.3778 165.608 -12.9336 165.28C-12.4893 164.952 -12.3952 164.326 -12.7234 163.881L-14.3321 165.07ZM-8.07077 170.593C-8.37591 170.133 -8.99646 170.007 -9.45679 170.312C-9.91711 170.617 -10.0429 171.238 -9.73777 171.698L-8.07077 170.593ZM-5.30901 178.527C-5.0117 178.993 -4.39337 179.129 -3.92795 178.832C-3.46252 178.535 -3.32623 177.916 -3.62354 177.451L-5.30901 178.527ZM0.709675 184.271C0.413914 183.804 -0.203953 183.666 -0.670369 183.962C-1.13678 184.258 -1.27513 184.875 -0.979366 185.342L0.709675 184.271ZM3.39481 192.217C3.6924 192.683 4.3108 192.818 4.77605 192.521C5.24131 192.223 5.37723 191.605 5.07965 191.14L3.39481 192.217ZM9.46951 197.943C9.16793 197.48 8.54838 197.35 8.0857 197.651C7.62303 197.953 7.49243 198.573 7.79401 199.035L9.46951 197.943ZM12.2689 205.814C12.5761 206.273 13.1972 206.396 13.6562 206.089C14.1152 205.782 14.2382 205.161 13.9311 204.702L12.2689 205.814ZM18.4891 211.406C18.175 210.952 17.5521 210.838 17.0978 211.152C16.6435 211.466 16.5299 212.089 16.8439 212.543L18.4891 211.406ZM21.5322 219.201C21.8543 219.65 22.4791 219.752 22.9278 219.43C23.3764 219.108 23.479 218.483 23.157 218.035L21.5322 219.201ZM27.9483 224.571C27.6172 224.129 26.9904 224.039 26.5484 224.37C26.1064 224.701 26.0165 225.328 26.3476 225.77L27.9483 224.571ZM31.2987 232.226C31.6399 232.661 32.2685 232.736 32.7028 232.395C33.1371 232.054 33.2126 231.425 32.8714 230.991L31.2987 232.226ZM37.9479 237.288C37.5957 236.863 36.9653 236.804 36.5399 237.156C36.1145 237.508 36.0551 238.138 36.4073 238.564L37.9479 237.288ZM41.6889 244.764C42.0531 245.179 42.6849 245.221 43.1001 244.857C43.5152 244.492 43.5566 243.861 43.1924 243.445L41.6889 244.764ZM48.6185 249.44C48.2413 249.036 47.6085 249.015 47.205 249.392C46.8016 249.77 46.7804 250.402 47.1576 250.806L48.6185 249.44ZM52.828 256.664C53.2192 257.053 53.8523 257.052 54.2422 256.661C54.6321 256.27 54.631 255.637 54.2398 255.247L52.828 256.664ZM60.0701 260.839C59.664 260.464 59.0313 260.49 58.6571 260.896C58.2828 261.302 58.3086 261.935 58.7147 262.309L60.0701 260.839ZM64.8319 267.71C65.2539 268.066 65.8848 268.013 66.2411 267.591C66.5974 267.169 66.5442 266.538 66.1222 266.182L64.8319 267.71ZM72.4079 271.24C71.9692 270.904 71.3416 270.988 71.006 271.426C70.6704 271.865 70.7539 272.493 71.1925 272.828L72.4079 271.24ZM77.8074 277.62C78.2632 277.932 78.8856 277.815 79.1973 277.359C79.5091 276.904 79.3924 276.281 78.9365 275.969L77.8074 277.62ZM85.7141 280.323C85.2407 280.039 84.6263 280.192 84.3418 280.665C84.0573 281.139 84.2104 281.753 84.6837 282.038L85.7141 280.323ZM91.8235 286.026C92.3142 286.28 92.9174 286.088 93.1709 285.597C93.4244 285.106 93.232 284.503 92.7414 284.25L91.8235 286.026ZM100.013 287.692C99.5053 287.474 98.917 287.708 98.6985 288.215C98.4801 288.722 98.7142 289.311 99.2215 289.529L100.013 287.692ZM106.858 292.485C107.38 292.665 107.949 292.387 108.129 291.865C108.308 291.342 108.031 290.773 107.508 290.594L106.858 292.485ZM115.201 292.901C114.666 292.764 114.121 293.087 113.984 293.622C113.846 294.157 114.169 294.702 114.704 294.839L115.201 292.901ZM122.718 296.542C123.263 296.634 123.779 296.268 123.871 295.723C123.963 295.179 123.596 294.662 123.052 294.57L122.718 296.542ZM131.013 295.569C130.462 295.524 129.98 295.934 129.934 296.484C129.889 297.035 130.299 297.517 130.849 297.563L131.013 295.569ZM138.961 297.853C139.513 297.843 139.953 297.388 139.943 296.836C139.934 296.283 139.478 295.844 138.926 295.854L138.961 297.853ZM146.806 295.299C146.258 295.366 145.867 295.864 145.933 296.412C145.999 296.96 146.497 297.351 147.045 297.285L146.806 295.299ZM155.055 295.955C155.596 295.842 155.942 295.312 155.829 294.771C155.715 294.23 155.185 293.884 154.645 293.998L155.055 295.955ZM162.274 292.097C161.743 292.25 161.436 292.804 161.589 293.334C161.741 293.865 162.295 294.172 162.826 294.02L162.274 292.097ZM170.479 291.557C170.999 291.372 171.271 290.8 171.086 290.28C170.901 289.76 170.329 289.488 169.809 289.673L170.479 291.557ZM177.255 286.793C176.745 287.005 176.504 287.591 176.717 288.101C176.929 288.61 177.515 288.851 178.025 288.639L177.255 286.793ZM185.346 285.38C185.845 285.144 186.059 284.548 185.823 284.049C185.587 283.549 184.991 283.336 184.492 283.571L185.346 285.38ZM191.595 280.036C191.105 280.292 190.916 280.896 191.172 281.385C191.428 281.875 192.032 282.064 192.521 281.809L191.595 280.036ZM199.622 277.931C200.102 277.658 200.27 277.048 199.996 276.568C199.723 276.088 199.113 275.92 198.633 276.193L199.622 277.931ZM205.439 272.174C204.968 272.462 204.819 273.078 205.107 273.549C205.396 274.02 206.011 274.168 206.482 273.88L205.439 272.174ZM213.28 269.587C213.743 269.285 213.873 268.666 213.572 268.203C213.271 267.74 212.651 267.609 212.188 267.911L213.28 269.587ZM218.808 263.474C218.353 263.788 218.239 264.41 218.552 264.865C218.865 265.32 219.488 265.435 219.943 265.121L218.808 263.474ZM226.479 260.504C226.926 260.18 227.027 259.555 226.703 259.108C226.379 258.66 225.754 258.56 225.306 258.884L226.479 260.504ZM231.739 254.119C231.299 254.453 231.212 255.08 231.546 255.52C231.879 255.961 232.506 256.047 232.947 255.714L231.739 254.119ZM239.259 250.832C239.693 250.49 239.767 249.862 239.425 249.428C239.082 248.994 238.454 248.92 238.02 249.262L239.259 250.832ZM244.268 244.236C243.841 244.586 243.779 245.216 244.129 245.644C244.479 246.071 245.109 246.133 245.536 245.783L244.268 244.236ZM251.656 240.677C252.077 240.319 252.129 239.688 251.771 239.267C251.414 238.846 250.783 238.795 250.362 239.152L251.656 240.677ZM256.422 233.921C256.007 234.285 255.966 234.917 256.33 235.332C256.694 235.747 257.326 235.788 257.741 235.424L256.422 233.921ZM263.702 230.112C264.112 229.741 264.143 229.109 263.773 228.699C263.402 228.29 262.77 228.258 262.36 228.629L263.702 230.112ZM268.25 223.219C267.846 223.596 267.823 224.228 268.2 224.632C268.577 225.036 269.209 225.059 269.613 224.682L268.25 223.219ZM275.423 219.191C275.822 218.809 275.835 218.176 275.453 217.777C275.071 217.379 274.438 217.365 274.039 217.747L275.423 219.191ZM279.771 212.179C279.377 212.567 279.372 213.2 279.76 213.593C280.147 213.987 280.78 213.992 281.174 213.605L279.771 212.179ZM286.838 207.956C287.227 207.563 287.224 206.93 286.831 206.542C286.439 206.153 285.805 206.156 285.417 206.549L286.838 207.956ZM291 200.837C290.616 201.235 290.627 201.868 291.025 202.251C291.422 202.635 292.055 202.624 292.439 202.227L291 200.837ZM297.963 196.435C298.341 196.033 298.322 195.4 297.92 195.021C297.518 194.642 296.886 194.661 296.507 195.063L297.963 196.435ZM301.947 189.22C301.573 189.626 301.599 190.259 302.006 190.633C302.412 191.007 303.045 190.98 303.419 190.574L301.947 189.22ZM308.805 184.65C309.174 184.239 309.14 183.607 308.729 183.237C308.319 182.868 307.686 182.902 307.317 183.313L308.805 184.65ZM312.617 177.345C312.253 177.76 312.294 178.392 312.709 178.757C313.124 179.121 313.756 179.08 314.12 178.665L312.617 177.345ZM319.369 172.616C319.729 172.197 319.68 171.566 319.261 171.206C318.842 170.846 318.211 170.895 317.851 171.314L319.369 172.616ZM323.012 165.226C322.658 165.65 322.713 166.28 323.136 166.635C323.56 166.99 324.19 166.934 324.545 166.511L323.012 165.226ZM329.653 160.344C330.003 159.917 329.94 159.287 329.513 158.937C329.085 158.587 328.455 158.65 328.106 159.077L329.653 160.344ZM333.127 152.87C332.782 153.301 332.853 153.93 333.284 154.275C333.715 154.62 334.345 154.55 334.689 154.119L333.127 152.87ZM339.649 147.839C339.988 147.404 339.911 146.775 339.475 146.436C339.04 146.096 338.412 146.174 338.072 146.609L339.649 147.839ZM342.951 140.278C342.616 140.717 342.701 141.345 343.141 141.679C343.58 142.013 344.208 141.928 344.542 141.489L342.951 140.278ZM349.339 135.104C349.668 134.66 349.575 134.034 349.131 133.705C348.688 133.376 348.061 133.469 347.733 133.912L349.339 135.104ZM352.462 127.447C352.139 127.895 352.24 128.52 352.688 128.843C353.136 129.167 353.761 129.065 354.084 128.618L352.462 127.447ZM358.695 122.136C359.012 121.684 358.903 121.06 358.451 120.743C357.999 120.426 357.375 120.535 357.058 120.988L358.695 122.136ZM361.626 114.374C361.315 114.83 361.434 115.452 361.89 115.763C362.347 116.073 362.969 115.955 363.28 115.498L361.626 114.374ZM367.712 108.873C368.015 108.411 367.887 107.791 367.426 107.488C366.965 107.184 366.345 107.312 366.041 107.773L367.712 108.873ZM370.384 101.052C370.088 101.518 370.227 102.136 370.693 102.432C371.159 102.728 371.777 102.589 372.073 102.123L370.384 101.052ZM376.311 95.3052C376.598 94.8335 376.449 94.2182 375.977 93.931C375.505 93.6438 374.89 93.7934 374.603 94.2651L376.311 95.3052ZM378.64 87.4847C378.362 87.9621 378.524 88.5742 379.002 88.8518C379.479 89.1295 380.091 88.9675 380.369 88.4901L378.64 87.4847ZM384.36 81.4417C384.627 80.9579 384.45 80.3497 383.967 80.0834C383.483 79.817 382.875 79.9933 382.608 80.4771L384.36 81.4417ZM386.363 73.4388C386.11 73.9296 386.303 74.5328 386.794 74.7859C387.285 75.0391 387.888 74.8464 388.141 74.3555L386.363 73.4388ZM391.683 67.2161C391.92 66.7174 391.708 66.1208 391.209 65.8836C390.71 65.6465 390.114 65.8586 389.877 66.3573L391.683 67.2161ZM393.146 59.1224C392.929 59.6304 393.165 60.2179 393.673 60.4346C394.181 60.6513 394.769 60.4152 394.985 59.9073L393.146 59.1224ZM397.97 52.3862C398.159 51.8673 397.892 51.2933 397.373 51.1042C396.854 50.9151 396.28 51.1824 396.091 51.7013L397.97 52.3862ZM398.539 44.1613C398.39 44.693 398.7 45.245 399.232 45.3942C399.764 45.5433 400.316 45.2332 400.465 44.7014L398.539 44.1613ZM402.217 36.8168C402.302 36.2711 401.928 35.7601 401.382 35.6756C400.836 35.5911 400.326 35.965 400.241 36.5108L402.217 36.8168ZM400.66 28.7589C400.702 29.3096 401.181 29.7228 401.732 29.6818C402.283 29.6407 402.696 29.161 402.655 28.6102L400.66 28.7589ZM400.697 20.6295C400.507 20.1109 399.932 19.8445 399.414 20.0345C398.895 20.2244 398.629 20.7988 398.819 21.3174L400.697 20.6295ZM395.592 14.4286C395.874 14.9036 396.488 15.0603 396.963 14.7786C397.438 14.4969 397.594 13.8834 397.313 13.4084L395.592 14.4286ZM392.41 7.04538C392.017 6.65682 391.384 6.66 390.996 7.05248C390.607 7.44496 390.61 8.07812 391.003 8.46668L392.41 7.04538ZM384.912 4.11414C385.41 4.35457 386.008 4.1464 386.248 3.64919C386.488 3.15198 386.28 2.55402 385.783 2.31359L384.912 4.11414ZM377.951 0.118732C377.401 0.0643997 376.912 0.465898 376.858 1.0155C376.803 1.56511 377.205 2.0547 377.754 2.10903L377.951 0.118732ZM370.264 2.57412C370.804 2.45785 371.147 1.92591 371.031 1.386C370.915 0.846098 370.383 0.502676 369.843 0.61895L370.264 2.57412ZM362.248 3.32532C361.754 3.57252 361.554 4.17328 361.802 4.66715C362.049 5.16103 362.65 5.361 363.143 5.1138L362.248 3.32532ZM356.733 9.23946C357.165 8.89474 357.235 8.26549 356.89 7.834C356.546 7.40251 355.916 7.33218 355.485 7.6769L356.733 9.23946ZM349.723 13.244C349.362 13.6624 349.409 14.2938 349.827 14.6543C350.246 15.0149 350.877 14.968 351.238 14.5496L349.723 13.244ZM346.756 20.7782C347.038 20.3037 346.883 19.6899 346.409 19.4072C345.934 19.1244 345.32 19.2798 345.038 19.7542L346.756 20.7782ZM341.543 26.9322C341.343 27.4472 341.599 28.0264 342.114 28.2257C342.629 28.425 343.209 28.1691 343.408 27.654L341.543 26.9322ZM341.246 35.0074C341.358 34.4664 341.009 33.9377 340.468 33.8264C339.927 33.7151 339.399 34.0634 339.287 34.6043L341.246 35.0074ZM338.322 42.5539C338.301 43.1057 338.73 43.5707 339.282 43.5925C339.834 43.6142 340.299 43.1845 340.321 42.6326L338.322 42.5539ZM340.627 50.3067C340.562 49.7582 340.065 49.3662 339.516 49.431C338.968 49.4958 338.576 49.993 338.641 50.5415L340.627 50.3067ZM340.158 58.356C340.302 58.8891 340.851 59.2045 341.384 59.0604C341.917 58.9163 342.233 58.3673 342.089 57.8342L340.158 58.356ZM344.594 65.1058C344.38 64.5964 343.794 64.3567 343.285 64.5703C342.775 64.7839 342.536 65.3699 342.749 65.8792L344.594 65.1058ZM346.265 73.0182C346.537 73.4986 347.147 73.6674 347.628 73.3951C348.108 73.1228 348.277 72.5126 348.005 72.0321L346.265 73.0182ZM352.187 78.5738C351.866 78.1242 351.242 78.0198 350.792 78.3405C350.343 78.6613 350.238 79.2858 350.559 79.7354L352.187 78.5738ZM355.426 85.9362C355.786 86.3553 356.417 86.4035 356.837 86.0438C357.256 85.6841 357.304 85.0528 356.944 84.6337L355.426 85.9362ZM362.187 90.2722C361.795 89.8823 361.162 89.8833 360.772 90.2744C360.382 90.6655 360.383 91.2986 360.774 91.6886L362.187 90.2722ZM366.562 97.0703C366.978 97.4327 367.61 97.3888 367.973 96.972C368.335 96.5553 368.291 95.9237 367.874 95.5612L366.562 97.0703ZM373.989 100.557C373.551 100.221 372.923 100.303 372.587 100.74C372.25 101.178 372.332 101.806 372.77 102.143L373.989 100.557ZM379.031 106.703C379.485 107.017 380.108 106.903 380.422 106.449C380.736 105.994 380.622 105.371 380.168 105.058L379.031 106.703ZM386.708 109.351C386.239 109.058 385.622 109.201 385.33 109.669C385.037 110.138 385.18 110.754 385.648 111.047L386.708 109.351ZM392.413 115.078C392.893 115.351 393.504 115.183 393.777 114.703C394.05 114.223 393.882 113.613 393.402 113.339L392.413 115.078ZM400.22 117.053C399.731 116.798 399.127 116.988 398.871 117.477C398.616 117.967 398.806 118.571 399.295 118.826L400.22 117.053ZM406.373 122.368C406.871 122.607 407.468 122.398 407.707 121.9C407.946 121.402 407.737 120.804 407.239 120.565L406.373 122.368ZM414.28 123.818C413.775 123.593 413.184 123.821 412.96 124.325C412.736 124.83 412.963 125.421 413.468 125.645L414.28 123.818ZM420.714 128.746C421.224 128.957 421.809 128.713 422.02 128.203C422.23 127.692 421.987 127.107 421.476 126.897L420.714 128.746ZM428.748 129.788C428.232 129.59 427.654 129.848 427.456 130.364C427.258 130.879 427.516 131.458 428.032 131.655L428.748 129.788ZM435.34 134.363C435.86 134.549 436.432 134.278 436.618 133.758C436.804 133.238 436.534 132.666 436.014 132.48L435.34 134.363ZM443.56 135.089C443.037 134.914 442.47 135.197 442.295 135.721C442.12 136.244 442.403 136.811 442.927 136.986L443.56 135.089ZM450.222 139.345C450.749 139.51 451.31 139.216 451.475 138.689C451.64 138.162 451.347 137.601 450.82 137.436L450.222 139.345ZM458.379 139.727C457.849 139.572 457.294 139.875 457.138 140.405C456.983 140.935 457.286 141.491 457.816 141.646L458.379 139.727ZM465.613 143.824C466.148 143.961 466.693 143.638 466.83 143.103C466.967 142.568 466.645 142.023 466.11 141.886L465.613 143.824ZM473.867 143.676C473.327 143.565 472.798 143.913 472.686 144.454C472.575 144.995 472.923 145.524 473.464 145.635L473.867 143.676ZM481.385 147.086C481.931 147.173 482.444 146.803 482.532 146.257C482.619 145.712 482.249 145.199 481.703 145.111L481.385 147.086ZM489.597 146.22C489.048 146.154 488.55 146.545 488.484 147.093C488.418 147.642 488.808 148.14 489.357 148.206L489.597 146.22ZM497.361 149.027C497.911 149.074 498.395 148.666 498.442 148.115C498.488 147.565 498.08 147.081 497.53 147.034L497.361 149.027ZM505.49 147.581C504.939 147.552 504.468 147.975 504.439 148.527C504.409 149.078 504.833 149.549 505.384 149.578L505.49 147.581ZM513.417 149.888C513.969 149.902 514.428 149.466 514.442 148.913C514.455 148.361 514.019 147.903 513.467 147.889L513.417 149.888ZM521.452 147.984C520.899 147.985 520.452 148.432 520.452 148.985C520.452 149.537 520.9 149.985 521.452 149.984L521.452 147.984ZM529.485 149.891C530.037 149.879 530.474 149.422 530.462 148.869C530.45 148.317 529.992 147.88 529.44 147.892L529.485 149.891ZM537.427 147.635C536.875 147.658 536.447 148.124 536.469 148.676C536.492 149.227 536.958 149.656 537.51 149.633L537.427 147.635ZM545.527 149.232C546.078 149.2 546.499 148.727 546.467 148.176C546.435 147.624 545.962 147.203 545.411 147.235L545.527 149.232ZM553.391 146.714C552.84 146.754 552.425 147.232 552.465 147.783C552.505 148.334 552.984 148.749 553.535 148.709L553.391 146.714ZM561.532 148.083C562.083 148.037 562.491 147.554 562.445 147.003C562.399 146.453 561.916 146.044 561.365 146.09L561.532 148.083ZM569.335 145.383C568.785 145.435 568.381 145.922 568.432 146.472C568.484 147.022 568.971 147.426 569.521 147.375L569.335 145.383ZM577.501 146.601C578.051 146.546 578.451 146.056 578.396 145.507C578.341 144.957 577.851 144.556 577.302 144.611L577.501 146.601ZM585.265 143.793C584.716 143.85 584.318 144.342 584.375 144.892C584.433 145.441 584.925 145.84 585.474 145.782L585.265 143.793ZM593.442 144.934C593.991 144.875 594.389 144.382 594.33 143.833C594.271 143.284 593.778 142.886 593.229 142.945L593.442 144.934ZM601.193 142.088C600.644 142.147 600.246 142.64 600.305 143.189C600.364 143.738 600.857 144.135 601.407 144.076L601.193 142.088ZM609.369 143.228C609.918 143.17 610.317 142.678 610.259 142.128C610.201 141.579 609.709 141.181 609.16 141.239L609.369 143.228ZM617.132 140.418C616.583 140.473 616.182 140.963 616.237 141.513C616.292 142.062 616.782 142.463 617.331 142.408L617.132 140.418ZM625.295 141.639C625.845 141.588 626.25 141.101 626.199 140.551C626.148 140.001 625.661 139.596 625.111 139.647L625.295 141.639ZM633.104 138.949C632.553 138.994 632.144 139.477 632.189 140.027C632.233 140.578 632.716 140.987 633.267 140.942L633.104 138.949ZM641.244 140.345C641.795 140.308 642.212 139.831 642.175 139.28C642.137 138.729 641.661 138.312 641.109 138.35L641.244 140.345ZM649.128 137.878C648.577 137.905 648.151 138.375 648.179 138.926C648.206 139.478 648.675 139.903 649.227 139.876L649.128 137.878ZM657.213 139.567C657.765 139.552 658.201 139.092 658.186 138.54C658.171 137.988 657.711 137.553 657.159 137.568L657.213 139.567ZM665.198 137.457C664.646 137.457 664.198 137.904 664.198 138.456C664.198 139.009 664.645 139.457 665.198 139.457L665.198 137.457ZM673.172 139.589C673.724 139.608 674.187 139.176 674.205 138.624C674.224 138.072 673.792 137.609 673.24 137.59L673.172 139.589ZM681.271 138.021C680.721 137.98 680.241 138.393 680.2 138.944C680.159 139.495 680.572 139.975 681.122 140.016L681.271 138.021ZM689.039 140.797C689.588 140.865 690.087 140.476 690.155 139.928C690.223 139.38 689.834 138.88 689.286 138.812L689.039 140.797ZM697.273 140.038C696.73 139.938 696.208 140.297 696.107 140.84C696.007 141.383 696.366 141.905 696.909 142.005L697.273 140.038ZM704.564 143.637C705.102 143.761 705.639 143.424 705.762 142.886C705.885 142.347 705.548 141.811 705.01 141.688L704.564 143.637ZM712.49 143.465C711.954 143.333 711.412 143.66 711.28 144.197C711.148 144.733 711.475 145.275 712.012 145.407L712.49 143.465ZM719.452 147.309C719.985 147.45 720.533 147.132 720.674 146.598C720.816 146.064 720.498 145.517 719.964 145.375L719.452 147.309ZM727.416 147.421C726.885 147.27 726.332 147.578 726.181 148.11C726.03 148.641 726.338 149.194 726.869 149.345L727.416 147.421ZM734.233 151.513C734.761 151.674 735.32 151.376 735.481 150.847C735.642 150.319 735.344 149.76 734.816 149.599L734.233 151.513ZM742.162 151.915C741.637 151.744 741.073 152.031 740.901 152.556C740.73 153.081 741.017 153.645 741.542 153.817L742.162 151.915ZM748.795 156.263C749.317 156.445 749.887 156.17 750.069 155.648C750.251 155.127 749.975 154.557 749.454 154.375L748.795 156.263ZM756.707 156.993C756.19 156.8 755.614 157.062 755.42 157.58C755.227 158.097 755.49 158.673 756.007 158.866L756.707 156.993ZM763.174 161.636C763.687 161.841 764.269 161.591 764.474 161.079C764.679 160.566 764.429 159.984 763.917 159.779L763.174 161.636ZM771.054 162.735C770.546 162.517 769.958 162.752 769.74 163.26C769.523 163.767 769.758 164.355 770.265 164.573L771.054 162.735ZM777.273 167.689C777.775 167.92 778.369 167.701 778.6 167.199C778.831 166.698 778.612 166.104 778.11 165.872L777.273 167.689ZM785.076 169.206C784.581 168.96 783.981 169.162 783.735 169.656C783.489 170.151 783.691 170.751 784.186 170.997L785.076 169.206ZM790.986 174.513C791.473 174.775 792.079 174.593 792.341 174.106C792.603 173.62 792.421 173.014 791.934 172.752L790.986 174.513ZM798.663 176.53C798.187 176.251 797.574 176.411 797.295 176.887C797.015 177.364 797.175 177.976 797.651 178.256L798.663 176.53ZM804.161 182.256C804.625 182.555 805.244 182.421 805.543 181.957C805.842 181.493 805.709 180.874 805.244 180.575L804.161 182.256ZM811.672 184.946C811.223 184.623 810.598 184.725 810.276 185.174C809.954 185.622 810.056 186.247 810.504 186.569L811.672 184.946ZM816.564 191.206C816.992 191.556 817.622 191.493 817.971 191.065C818.321 190.637 818.258 190.007 817.83 189.658L816.564 191.206ZM823.644 194.796C823.246 194.413 822.613 194.425 822.23 194.823C821.847 195.221 821.859 195.854 822.257 196.237L823.644 194.796ZM827.431 201.765C827.783 202.19 828.414 202.249 828.839 201.896C829.264 201.544 829.323 200.913 828.97 200.488L827.431 201.765ZM833.49 206.92C833.216 206.441 832.605 206.274 832.125 206.548C831.646 206.821 831.479 207.432 831.753 207.912L833.49 206.92ZM834.5 214.739C834.617 215.279 835.15 215.621 835.69 215.503C836.23 215.385 836.572 214.853 836.454 214.313L834.5 214.739ZM836.212 222.423C836.378 221.897 836.086 221.335 835.56 221.168C835.033 221.002 834.471 221.294 834.305 221.82L836.212 222.423ZM830.387 227.706C829.979 228.078 829.948 228.71 830.32 229.119C830.691 229.528 831.324 229.558 831.732 229.186L830.387 227.706ZM824.998 233.485C825.5 233.255 825.721 232.662 825.491 232.16C825.261 231.657 824.668 231.437 824.166 231.666L824.998 233.485ZM816.846 234.193C816.31 234.324 815.982 234.866 816.113 235.402C816.245 235.939 816.786 236.267 817.323 236.135L816.846 234.193ZM809.4 237.006C809.952 237.038 810.424 236.617 810.456 236.065C810.488 235.514 810.067 235.041 809.516 235.009L809.4 237.006ZM802.759 232.646C802.327 232.302 801.698 232.374 801.354 232.806C801.011 233.238 801.082 233.867 801.515 234.211L802.759 232.646ZM796.948 227.305C797.123 227.829 797.69 228.112 798.214 227.937C798.737 227.762 799.02 227.195 798.845 226.672L796.948 227.305ZM797.618 219.257C797.595 218.705 797.129 218.276 796.577 218.299C796.025 218.322 795.596 218.787 795.619 219.339L797.618 219.257ZM795.934 211.355C795.875 211.904 796.273 212.397 796.822 212.456C797.371 212.514 797.864 212.117 797.923 211.568L795.934 211.355ZM799.133 203.885C799.243 203.343 798.893 202.816 798.351 202.706C797.81 202.597 797.282 202.947 797.173 203.488L799.133 203.885ZM799.008 195.782C798.863 196.315 799.178 196.864 799.711 197.009C800.244 197.153 800.793 196.838 800.938 196.305L799.008 195.782ZM803.172 188.838C803.343 188.312 803.056 187.748 802.531 187.577C802.005 187.406 801.441 187.693 801.27 188.219L803.172 188.838ZM803.867 180.775C803.675 181.293 803.939 181.869 804.457 182.061C804.974 182.253 805.55 181.989 805.742 181.472L803.867 180.775ZM808.593 174.196C808.803 173.685 808.559 173.101 808.048 172.891C807.538 172.681 806.953 172.924 806.743 173.435L808.593 174.196ZM809.861 166.188C809.635 166.692 809.86 167.284 810.364 167.51C810.868 167.736 811.459 167.511 811.685 167.007L809.861 166.188ZM814.994 159.904C815.234 159.407 815.026 158.809 814.529 158.569C814.031 158.329 813.433 158.537 813.193 159.034L814.994 159.904ZM816.721 151.978C816.467 152.468 816.66 153.072 817.15 153.325C817.641 153.579 818.244 153.386 818.498 152.896L816.721 151.978ZM822.173 146.004C822.439 145.52 822.262 144.912 821.778 144.645C821.294 144.379 820.686 144.556 820.42 145.04L822.173 146.004ZM824.304 138.187C824.026 138.664 824.187 139.276 824.664 139.555C825.141 139.833 825.753 139.672 826.031 139.195L824.304 138.187ZM830.066 132.485C830.356 132.016 830.211 131.399 829.742 131.109C829.272 130.818 828.656 130.963 828.365 131.433L830.066 132.485ZM832.599 124.793C832.295 125.255 832.424 125.875 832.885 126.178C833.347 126.481 833.967 126.353 834.27 125.891L832.599 124.793ZM838.651 119.419C838.968 118.966 838.857 118.342 838.404 118.026C837.951 117.71 837.327 117.821 837.011 118.274L838.651 119.419ZM841.625 111.869C841.296 112.312 841.388 112.939 841.831 113.269C842.274 113.598 842.9 113.506 843.23 113.063L841.625 111.869ZM848.006 106.862C848.35 106.431 848.279 105.801 847.848 105.457C847.416 105.113 846.787 105.183 846.442 105.615L848.006 106.862ZM851.477 99.5396C851.116 99.958 851.163 100.589 851.581 100.95C852 101.311 852.631 101.264 852.992 100.845L851.477 99.5396ZM858.209 95.0489C858.588 94.6469 858.569 94.014 858.167 93.6353C857.765 93.2566 857.132 93.2755 856.753 93.6775L858.209 95.0489ZM862.309 88.0747C861.909 88.4561 861.895 89.0891 862.276 89.4886C862.658 89.888 863.291 89.9026 863.69 89.5213L862.309 88.0747ZM869.48 84.3337C869.904 83.9795 869.96 83.3489 869.606 82.9251C869.252 82.5014 868.621 82.445 868.197 82.7992L869.48 84.3337ZM874.492 77.9629C874.039 78.2792 873.929 78.9026 874.245 79.3554C874.561 79.8081 875.185 79.9187 875.638 79.6023L874.492 77.9629ZM882.225 75.529C882.712 75.2687 882.896 74.6628 882.636 74.1757C882.376 73.6886 881.77 73.5047 881.283 73.765L882.225 75.529ZM888.644 70.5684C888.12 70.7407 887.834 71.3057 888.006 71.8305C888.179 72.3552 888.744 72.6408 889.268 72.4685L888.644 70.5684ZM896.664 70.9911C897.215 70.958 897.635 70.4843 897.602 69.933C897.569 69.3818 897.095 68.9616 896.544 68.9947L896.664 70.9911ZM904.627 69.8813C904.097 69.7239 903.54 70.0254 903.383 70.5547C903.226 71.0841 903.527 71.6409 904.056 71.7983L904.627 69.8813ZM910.814 75.1323C911.275 75.4365 911.895 75.3094 912.199 74.8485C912.504 74.3875 912.376 73.7672 911.915 73.463L910.814 75.1323ZM918.445 78.4746C918.027 78.1141 917.395 78.1609 917.035 78.5792C916.674 78.9975 916.721 79.629 917.139 79.9895L918.445 78.4746ZM922.99 85.4294C923.382 85.8181 924.015 85.8151 924.404 85.4227C924.792 85.0304 924.789 84.3972 924.397 84.0085L922.99 85.4294ZM930 89.8208C929.625 89.4156 928.992 89.3914 928.587 89.7666C928.182 90.1419 928.158 90.7746 928.533 91.1798L930 89.8208ZM933.889 97.145C934.253 97.5609 934.885 97.6034 935.3 97.2401C935.716 96.8767 935.759 96.2449 935.396 95.829L933.889 97.145ZM940.667 101.995C940.312 101.572 939.681 101.516 939.258 101.871C938.835 102.226 938.779 102.857 939.134 103.28L940.667 101.995ZM944.303 109.543C944.651 109.971 945.281 110.036 945.71 109.687C946.138 109.339 946.203 108.709 945.854 108.28L944.303 109.543ZM950.863 114.505C950.519 114.073 949.89 114.002 949.458 114.346C949.026 114.69 948.955 115.32 949.299 115.752L950.863 114.505ZM954.299 122.08C954.64 122.514 955.269 122.59 955.703 122.249C956.138 121.908 956.214 121.28 955.873 120.845L954.299 122.08ZM960.864 127.242C960.525 126.806 959.897 126.727 959.461 127.066C959.024 127.404 958.945 128.033 959.284 128.469L960.864 127.242ZM964.182 134.801C964.519 135.238 965.147 135.319 965.584 134.982C966.022 134.644 966.103 134.016 965.766 133.579L964.182 134.801ZM970.707 139.997C970.37 139.56 969.742 139.477 969.305 139.814C968.867 140.151 968.785 140.779 969.121 141.216L970.707 139.997ZM974.021 147.592C974.357 148.03 974.985 148.112 975.423 147.775C975.861 147.439 975.943 146.811 975.607 146.373L974.021 147.592ZM980.523 152.765C980.186 152.328 979.558 152.246 979.121 152.583C978.683 152.92 978.602 153.548 978.939 153.986L980.523 152.765ZM983.873 160.38C984.211 160.816 984.839 160.897 985.276 160.559C985.713 160.221 985.793 159.593 985.455 159.156L983.873 160.38ZM990.387 165.511C990.048 165.075 989.419 164.997 988.984 165.336C988.548 165.676 988.47 166.304 988.809 166.74L990.387 165.511ZM993.793 173.112C994.134 173.546 994.762 173.622 995.197 173.28C995.631 172.939 995.707 172.311 995.365 171.876L993.793 173.112ZM1000.35 178.184C1000 177.751 999.374 177.679 998.941 178.023C998.509 178.366 998.436 178.995 998.78 179.428L1000.35 178.184ZM1003.82 185.742C1004.17 186.172 1004.8 186.24 1005.23 185.894C1005.66 185.548 1005.73 184.919 1005.38 184.488L1003.82 185.742ZM1010.45 190.741C1010.1 190.313 1009.47 190.249 1009.04 190.598C1008.61 190.947 1008.55 191.577 1008.9 192.005L1010.45 190.741ZM1014.03 198.24C1014.38 198.665 1015.01 198.724 1015.44 198.371C1015.86 198.019 1015.92 197.388 1015.57 196.963L1014.03 198.24ZM1020.74 203.136C1020.38 202.714 1019.75 202.661 1019.33 203.018C1018.91 203.375 1018.85 204.005 1019.21 204.427L1020.74 203.136ZM1024.45 210.565C1024.82 210.983 1025.45 211.029 1025.87 210.668C1026.28 210.307 1026.33 209.676 1025.97 209.258L1024.45 210.565ZM1031.26 215.318C1030.9 214.904 1030.27 214.865 1029.85 215.231C1029.44 215.597 1029.4 216.229 1029.77 216.643L1031.26 215.318ZM1035.16 222.661C1035.53 223.07 1036.16 223.1 1036.57 222.729C1036.98 222.357 1037.01 221.725 1036.64 221.316L1035.16 222.661ZM1042.09 227.224C1041.71 226.82 1041.08 226.799 1040.67 227.177C1040.27 227.554 1040.25 228.187 1040.63 228.59L1042.09 227.224ZM1046.21 234.458C1046.59 234.855 1047.22 234.865 1047.62 234.481C1048.02 234.098 1048.03 233.464 1047.64 233.067L1046.21 234.458ZM1053.26 238.773C1052.87 238.383 1052.24 238.384 1051.85 238.775C1051.46 239.166 1051.46 239.799 1051.85 240.189L1053.26 238.773ZM1057.66 245.864C1058.06 246.246 1058.69 246.232 1059.07 245.833C1059.45 245.433 1059.44 244.8 1059.04 244.419L1057.66 245.864ZM1064.9 249.891C1064.49 249.518 1063.86 249.547 1063.48 249.955C1063.11 250.363 1063.14 250.995 1063.55 251.368L1064.9 249.891ZM1069.6 256.754C1070.02 257.115 1070.65 257.07 1071.01 256.652C1071.38 256.235 1071.33 255.603 1070.91 255.242L1069.6 256.754ZM1077.07 260.413C1076.64 260.064 1076.01 260.128 1075.66 260.556C1075.31 260.985 1075.37 261.614 1075.8 261.963L1077.07 260.413ZM1082.13 266.946C1082.57 267.28 1083.2 267.195 1083.53 266.755C1083.87 266.315 1083.78 265.688 1083.34 265.354L1082.13 266.946ZM1089.86 270.112C1089.4 269.795 1088.78 269.905 1088.46 270.358C1088.15 270.81 1088.26 271.434 1088.71 271.75L1089.86 270.112ZM1095.43 276.239C1095.9 276.535 1096.52 276.397 1096.81 275.931C1097.11 275.464 1096.97 274.846 1096.51 274.55L1095.43 276.239ZM1103.36 278.66C1102.88 278.389 1102.27 278.559 1102 279.04C1101.72 279.521 1101.89 280.131 1102.38 280.402L1103.36 278.66ZM1109.6 284.196C1110.09 284.438 1110.69 284.231 1110.93 283.734C1111.17 283.238 1110.97 282.639 1110.47 282.398L1109.6 284.196ZM1117.76 285.635C1117.24 285.429 1116.66 285.677 1116.46 286.19C1116.25 286.703 1116.5 287.285 1117.01 287.491L1117.76 285.635ZM1124.64 290.203C1125.16 290.366 1125.72 290.07 1125.89 289.542C1126.05 289.015 1125.76 288.455 1125.23 288.292L1124.64 290.203ZM1132.97 290.291C1132.43 290.179 1131.9 290.527 1131.79 291.068C1131.68 291.609 1132.02 292.138 1132.57 292.25L1132.97 290.291ZM1140.64 293.471C1141.19 293.523 1141.67 293.119 1141.73 292.57C1141.78 292.02 1141.37 291.532 1140.83 291.48L1140.64 293.471ZM1148.74 291.76C1148.18 291.774 1147.75 292.233 1147.76 292.785C1147.78 293.337 1148.23 293.774 1148.79 293.76L1148.74 291.76ZM1156.93 293.032C1157.48 292.948 1157.85 292.437 1157.77 291.891C1157.68 291.346 1157.17 290.971 1156.63 291.056L1156.93 293.032ZM1164.36 289.338C1163.83 289.493 1163.53 290.048 1163.68 290.578C1163.84 291.108 1164.39 291.413 1164.92 291.259L1164.36 289.338ZM1172.57 288.502C1173.08 288.283 1173.31 287.694 1173.09 287.187C1172.88 286.68 1172.29 286.446 1171.78 286.665L1172.57 288.502ZM1178.85 283.11C1178.37 283.386 1178.21 283.997 1178.49 284.476C1178.76 284.954 1179.37 285.119 1179.85 284.844L1178.85 283.11ZM1186.77 280.36C1187.22 280.037 1187.32 279.411 1186.99 278.964C1186.67 278.516 1186.04 278.416 1185.6 278.739L1186.77 280.36ZM1191.76 273.85C1191.34 274.211 1191.29 274.843 1191.65 275.26C1192.02 275.678 1192.65 275.723 1193.07 275.361L1191.76 273.85ZM1199.12 269.712C1199.52 269.324 1199.52 268.691 1199.13 268.298C1198.75 267.904 1198.11 267.899 1197.72 268.286L1199.12 269.712ZM1203.38 262.477C1203 262.881 1203.02 263.514 1203.43 263.891C1203.83 264.268 1204.46 264.247 1204.84 263.843L1203.38 262.477ZM1210.3 257.773C1210.66 257.356 1210.61 256.724 1210.2 256.363C1209.78 256.001 1209.15 256.047 1208.79 256.464L1210.3 257.773ZM1213.99 250.235C1213.65 250.665 1213.71 251.295 1214.14 251.642C1214.57 251.988 1215.2 251.921 1215.55 251.492L1213.99 250.235ZM1220.58 245.061C1220.91 244.62 1220.82 243.993 1220.38 243.66C1219.94 243.326 1219.31 243.413 1218.98 243.853L1220.58 245.061ZM1223.79 237.318C1223.47 237.767 1223.57 238.392 1224.02 238.713C1224.47 239.034 1225.09 238.93 1225.41 238.481L1223.79 237.318ZM1230.08 231.769C1230.39 231.311 1230.28 230.69 1229.82 230.38C1229.36 230.07 1228.74 230.189 1228.43 230.646L1230.08 231.769ZM1232.9 223.886C1232.6 224.349 1232.74 224.969 1233.2 225.268C1233.66 225.568 1234.28 225.435 1234.58 224.971L1232.9 223.886ZM1238.95 218.062C1239.24 217.592 1239.1 216.976 1238.63 216.685C1238.16 216.394 1237.54 216.539 1237.25 217.008L1238.95 218.062ZM1241.47 210.076C1241.18 210.55 1241.34 211.164 1241.81 211.447C1242.29 211.73 1242.9 211.575 1243.18 211.101L1241.47 210.076ZM1247.31 204.062C1247.59 203.584 1247.43 202.972 1246.95 202.696C1246.47 202.419 1245.86 202.583 1245.58 203.061L1247.31 204.062ZM1249.61 195.998C1249.33 196.479 1249.51 197.089 1249.99 197.359C1250.47 197.63 1251.08 197.459 1251.35 196.977L1249.61 195.998ZM1255.31 189.851C1255.57 189.367 1255.4 188.759 1254.91 188.493C1254.43 188.227 1253.82 188.404 1253.55 188.888L1255.31 189.851ZM1257.44 181.74C1257.18 182.226 1257.36 182.833 1257.85 183.095C1258.33 183.357 1258.94 183.175 1259.2 182.689L1257.44 181.74ZM1263.05 175.508C1263.31 175.02 1263.12 174.415 1262.64 174.155C1262.15 173.896 1261.54 174.081 1261.28 174.568L1263.05 175.508ZM1265.09 167.376C1264.83 167.865 1265.02 168.47 1265.51 168.728C1266 168.985 1266.6 168.798 1266.86 168.31L1265.09 167.376ZM1270.66 161.102C1270.91 160.614 1270.73 160.009 1270.24 159.752C1269.75 159.495 1269.14 159.683 1268.89 160.171L1270.66 161.102ZM1272.68 152.966C1272.42 153.454 1272.61 154.059 1273.1 154.317C1273.59 154.574 1274.19 154.386 1274.45 153.898L1272.68 152.966ZM1278.25 146.7C1278.51 146.212 1278.32 145.606 1277.83 145.348C1277.35 145.089 1276.74 145.275 1276.48 145.763L1278.25 146.7ZM1280.32 138.57C1280.05 139.057 1280.24 139.663 1280.72 139.924C1281.21 140.185 1281.82 140.002 1282.08 139.515L1280.32 138.57ZM1285.94 132.366C1286.21 131.881 1286.03 131.274 1285.54 131.009C1285.06 130.745 1284.45 130.924 1284.19 131.409L1285.94 132.366ZM1288.13 124.257C1287.86 124.74 1288.03 125.349 1288.51 125.618C1288.99 125.887 1289.6 125.713 1289.87 125.231L1288.13 124.257ZM1293.86 118.168C1294.14 117.689 1293.97 117.078 1293.49 116.804C1293.01 116.529 1292.4 116.695 1292.13 117.174L1293.86 118.168ZM1296.24 110.108C1295.96 110.583 1296.11 111.197 1296.59 111.478C1297.06 111.759 1297.68 111.602 1297.96 111.127L1296.24 110.108ZM1302.15 104.174C1302.44 103.704 1302.3 103.088 1301.83 102.799C1301.35 102.509 1300.74 102.656 1300.45 103.126L1302.15 104.174ZM1304.79 96.2211C1304.49 96.6855 1304.63 97.3043 1305.09 97.6031C1305.56 97.902 1306.18 97.7677 1306.47 97.3033L1304.79 96.2211ZM1310.95 90.5153C1311.26 90.058 1311.14 89.4362 1310.69 89.1266C1310.23 88.8169 1309.61 88.9366 1309.3 89.3939L1310.95 90.5153ZM1313.95 82.7147C1313.63 83.1635 1313.73 83.7882 1314.18 84.1101C1314.63 84.432 1315.25 84.3291 1315.57 83.8804L1313.95 82.7147ZM1320.42 77.3426C1320.75 76.9041 1320.67 76.2764 1320.23 75.9407C1319.79 75.605 1319.16 75.6884 1318.83 76.1269L1320.42 77.3426ZM1323.91 69.7236C1323.56 70.1501 1323.62 70.7803 1324.04 71.1312C1324.47 71.4822 1325.1 71.421 1325.45 70.9946L1323.91 69.7236ZM1330.71 64.8561C1331.08 64.444 1331.04 63.8118 1330.63 63.4442C1330.21 63.0765 1329.58 63.1125 1329.22 63.5246L1330.71 64.8561ZM1334.81 57.5228C1334.43 57.918 1334.43 58.5511 1334.83 58.9369C1335.22 59.3227 1335.86 59.3151 1336.24 58.92L1334.81 57.5228ZM1342.03 53.2794C1342.43 52.904 1342.46 52.2713 1342.08 51.8662C1341.71 51.4611 1341.07 51.4371 1340.67 51.8125L1342.03 53.2794ZM1346.82 46.4121C1346.4 46.7645 1346.34 47.3949 1346.69 47.8201C1347.04 48.2453 1347.67 48.3043 1348.1 47.9518L1346.82 46.4121ZM1354.47 42.9798C1354.92 42.6537 1355.02 42.028 1354.69 41.5823C1354.37 41.1366 1353.74 41.0396 1353.29 41.3658L1354.47 42.9798ZM1360.06 36.7419C1359.59 37.0383 1359.46 37.6564 1359.75 38.1224C1360.05 38.5884 1360.67 38.7258 1361.13 38.4293L1360.06 36.7419ZM1368.09 34.332C1368.57 34.0685 1368.75 33.4613 1368.49 32.976C1368.23 32.4907 1367.62 32.3109 1367.13 32.5745L1368.09 34.332ZM1374.47 28.9234C1373.97 29.1514 1373.74 29.7441 1373.97 30.2471C1374.2 30.7501 1374.79 30.973 1375.3 30.7449L1374.47 28.9234ZM1382.76 27.6878C1383.27 27.4974 1383.54 26.9227 1383.35 26.4043C1383.16 25.8859 1382.58 25.6201 1382.07 25.8106L1382.76 27.6878ZM1389.89 23.2603C1389.36 23.4121 1389.05 23.9656 1389.2 24.4966C1389.35 25.0276 1389.9 25.335 1390.44 25.1833L1389.89 23.2603ZM1398.22 23.2581C1398.76 23.1448 1399.11 22.6148 1399 22.0743C1398.88 21.5337 1398.35 21.1874 1397.81 21.3007L1398.22 23.2581ZM1405.93 19.8955C1405.38 19.9708 1405 20.4754 1405.08 21.0225C1405.15 21.5697 1405.66 21.9521 1406.2 21.8768L1405.93 19.8955ZM1414.21 21.0444C1414.76 21.0052 1415.17 20.5268 1415.13 19.9759C1415.09 19.425 1414.62 19.0103 1414.06 19.0495L1414.21 21.0444ZM1422.23 18.7224C1421.68 18.7278 1421.24 19.1798 1421.24 19.732C1421.25 20.2843 1421.7 20.7277 1422.25 20.7223L1422.23 18.7224ZM1430.39 20.8808C1430.94 20.9072 1431.41 20.4813 1431.43 19.9297C1431.46 19.378 1431.04 18.9094 1430.48 18.8831L1430.39 20.8808ZM1438.57 19.4832C1438.02 19.4282 1437.53 19.8291 1437.47 20.3787C1437.42 20.9282 1437.82 21.4183 1438.37 21.4732L1438.57 19.4832ZM1446.51 22.4909C1447.05 22.5726 1447.56 22.1959 1447.64 21.6497C1447.72 21.1035 1447.35 20.5945 1446.8 20.5129L1446.51 22.4909ZM1454.74 21.876C1454.19 21.771 1453.67 22.1254 1453.56 22.6676C1453.46 23.2098 1453.81 23.7345 1454.35 23.8395L1454.74 21.876ZM1462.39 25.5675C1462.93 25.6943 1463.46 25.3614 1463.59 24.8239C1463.72 24.2863 1463.39 23.7478 1462.85 23.6209L1462.39 25.5675ZM1470.65 25.6108C1470.11 25.4649 1469.56 25.7784 1469.42 26.3111C1469.27 26.8437 1469.59 27.3938 1470.12 27.5398L1470.65 25.6108ZM1477.96 29.8327C1478.49 29.9963 1479.05 29.7013 1479.21 29.1738C1479.38 28.6463 1479.08 28.0861 1478.56 27.9225L1477.96 29.8327ZM1486.28 30.4482C1485.76 30.2689 1485.19 30.5469 1485.01 31.0693C1484.83 31.5916 1485.11 32.1605 1485.63 32.3398L1486.28 30.4482ZM1493.23 35.069C1493.75 35.2626 1494.33 35.0003 1494.52 34.483C1494.71 33.9658 1494.45 33.3895 1493.94 33.1959L1493.23 35.069ZM1501.68 36.2107C1501.17 36.0038 1500.58 36.2513 1500.38 36.7633C1500.17 37.2754 1500.42 37.8582 1500.93 38.0651L1501.68 36.2107ZM1508.26 41.1232C1508.76 41.3416 1509.35 41.1075 1509.57 40.6002C1509.79 40.093 1509.55 39.5047 1509.05 39.2863L1508.26 41.1232ZM1516.59 42.6318C1516.09 42.4025 1515.49 42.6238 1515.26 43.1263C1515.03 43.6287 1515.26 44.2219 1515.76 44.4512L1516.59 42.6318ZM-16.766 161.955C-16.0027 162.865 -15.1917 163.906 -14.3321 165.07L-12.7234 163.881C-13.6004 162.694 -14.4374 161.619 -15.234 160.67L-16.766 161.955ZM-9.73777 171.698C-8.34768 173.795 -6.87198 176.081 -5.30901 178.527L-3.62354 177.451C-5.18918 175 -6.67173 172.704 -8.07077 170.593L-9.73777 171.698ZM-0.979366 185.342C0.420801 187.55 1.87895 189.847 3.39481 192.217L5.07965 191.14C3.56605 188.773 2.10971 186.479 0.709675 184.271L-0.979366 185.342ZM7.79401 199.035C9.23945 201.253 10.731 203.516 12.2689 205.814L13.9311 204.702C12.3983 202.412 10.9112 200.155 9.46951 197.943L7.79401 199.035ZM16.8439 212.543C18.3659 214.745 19.9286 216.967 21.5322 219.201L23.157 218.035C21.5608 215.811 20.0049 213.599 18.4891 211.406L16.8439 212.543ZM26.3476 225.77C27.9601 227.922 29.6104 230.077 31.2987 232.226L32.8714 230.991C31.1932 228.855 29.5522 226.712 27.9483 224.571L26.3476 225.77ZM36.4073 238.564C38.1312 240.646 39.8917 242.715 41.6889 244.764L43.1924 243.445C41.4085 241.412 39.6604 239.357 37.9479 237.288L36.4073 238.564ZM47.1576 250.806C49.0113 252.788 50.9014 254.743 52.828 256.664L54.2398 255.247C52.3308 253.344 50.457 251.406 48.6185 249.44L47.1576 250.806ZM58.7147 262.309C60.7169 264.154 62.7559 265.957 64.8319 267.71L66.1222 266.182C64.0694 264.449 62.052 262.665 60.0701 260.839L58.7147 262.309ZM71.1925 272.828C73.3595 274.486 75.5644 276.086 77.8074 277.62L78.9365 275.969C76.7242 274.456 74.548 272.877 72.4079 271.24L71.1925 272.828ZM84.6837 282.038C87.0245 283.445 89.4043 284.777 91.8235 286.026L92.7414 284.25C90.362 283.02 88.0196 281.709 85.7141 280.323L84.6837 282.038ZM99.2215 289.529C101.727 290.608 104.273 291.596 106.858 292.485L107.508 290.594C104.972 289.722 102.474 288.752 100.013 287.692L99.2215 289.529ZM114.704 294.839C117.336 295.514 120.008 296.084 122.718 296.542L123.052 294.57C120.397 294.122 117.78 293.563 115.201 292.901L114.704 294.839ZM130.849 297.563C132.21 297.675 133.581 297.758 134.961 297.812L135.039 295.813C133.688 295.761 132.346 295.679 131.013 295.569L130.849 297.563ZM134.961 297.812C136.283 297.863 137.617 297.877 138.961 297.853L138.926 295.854C137.618 295.877 136.322 295.863 135.039 295.813L134.961 297.812ZM147.045 297.285C149.681 296.968 152.352 296.522 155.055 295.955L154.645 293.998C151.994 294.554 149.38 294.989 146.806 295.299L147.045 297.285ZM162.826 294.02C165.353 293.294 167.905 292.472 170.479 291.557L169.809 289.673C167.272 290.575 164.76 291.384 162.274 292.097L162.826 294.02ZM178.025 288.639C180.45 287.627 182.891 286.539 185.346 285.38L184.492 283.571C182.063 284.719 179.65 285.794 177.255 286.793L178.025 288.639ZM192.521 281.809C194.878 280.577 197.246 279.284 199.622 277.931L198.633 276.193C196.276 277.534 193.93 278.816 191.595 280.036L192.521 281.809ZM206.482 273.88C208.742 272.498 211.009 271.066 213.28 269.587L212.188 267.911C209.932 269.38 207.682 270.802 205.439 272.174L206.482 273.88ZM219.943 265.121C222.119 263.622 224.298 262.082 226.479 260.504L225.306 258.884C223.138 260.454 220.971 261.984 218.808 263.474L219.943 265.121ZM232.947 255.714C235.051 254.12 237.156 252.492 239.259 250.832L238.02 249.262C235.927 250.914 233.833 252.534 231.739 254.119L232.947 255.714ZM245.536 245.783C247.579 244.109 249.619 242.406 251.656 240.677L250.362 239.152C248.333 240.874 246.302 242.569 244.268 244.236L245.536 245.783ZM257.741 235.424C259.733 233.676 261.72 231.905 263.702 230.112L262.36 228.629C260.386 230.415 258.406 232.18 256.422 233.921L257.741 235.424ZM269.613 224.682C271.557 222.871 273.494 221.04 275.423 219.191L274.039 217.747C272.117 219.59 270.186 221.414 268.25 223.219L269.613 224.682ZM281.174 213.605C283.071 211.737 284.96 209.853 286.838 207.956L285.417 206.549C283.544 208.44 281.662 210.318 279.771 212.179L281.174 213.605ZM292.439 202.227C294.291 200.308 296.133 198.377 297.963 196.435L296.507 195.063C294.683 196.999 292.847 198.925 291 200.837L292.439 202.227ZM303.419 190.574C305.227 188.608 307.023 186.633 308.805 184.65L307.317 183.313C305.541 185.29 303.75 187.26 301.947 189.22L303.419 190.574ZM314.12 178.665C315.886 176.654 317.635 174.637 319.369 172.616L317.851 171.314C316.122 173.329 314.377 175.34 312.617 177.345L314.12 178.665ZM324.545 166.511C326.266 164.457 327.969 162.401 329.653 160.344L328.106 159.077C326.426 161.128 324.728 163.179 323.012 165.226L324.545 166.511ZM334.689 154.119C336.364 152.024 338.017 149.93 339.649 147.839L338.072 146.609C336.445 148.694 334.797 150.781 333.127 152.87L334.689 154.119ZM344.542 141.489C346.166 139.355 347.765 137.226 349.339 135.104L347.733 133.912C346.164 136.028 344.57 138.15 342.951 140.278L344.542 141.489ZM354.084 128.618C355.65 126.447 357.188 124.286 358.695 122.136L357.058 120.988C355.556 123.13 354.023 125.284 352.462 127.447L354.084 128.618ZM363.28 115.498C364.792 113.274 366.27 111.064 367.712 108.873L366.041 107.773C364.605 109.956 363.133 112.157 361.626 114.374L363.28 115.498ZM372.073 102.123C373.53 99.8263 374.943 97.5527 376.311 95.3052L374.603 94.2651C373.241 96.5019 371.834 98.7651 370.384 101.052L372.073 102.123ZM380.369 88.4901C381.756 86.1048 383.087 83.754 384.36 81.4417L382.608 80.4771C381.343 82.7751 380.019 85.1123 378.64 87.4847L380.369 88.4901ZM388.141 74.3555C389.395 71.9237 390.577 69.5422 391.683 67.2161L389.877 66.3573C388.781 68.6626 387.608 71.0247 386.363 73.4388L388.141 74.3555ZM394.985 59.9073C396.092 57.3137 397.089 54.8038 397.97 52.3862L396.091 51.7013C395.223 54.0818 394.24 56.5582 393.146 59.1224L394.985 59.9073ZM400.465 44.7014C401.248 41.9098 401.837 39.2754 402.217 36.8168L400.241 36.5108C399.875 38.8766 399.305 41.4319 398.539 44.1613L400.465 44.7014ZM402.655 28.6102C402.547 27.1553 402.319 25.7947 401.962 24.5393L400.038 25.086C400.353 26.1924 400.56 27.4173 400.66 28.7589L402.655 28.6102ZM401.962 24.5393C401.574 23.1748 401.152 21.872 400.697 20.6295L398.819 21.3174C399.256 22.5113 399.663 23.7669 400.038 25.086L401.962 24.5393ZM397.313 13.4084C395.842 10.9292 394.196 8.81394 392.41 7.04538L391.003 8.46668C392.658 10.1059 394.202 12.0837 395.592 14.4286L397.313 13.4084ZM385.783 2.31359C383.276 1.10141 380.64 0.384586 377.951 0.118732L377.754 2.10903C380.218 2.3526 382.625 3.00804 384.912 4.11414L385.783 2.31359ZM369.843 0.61895C367.27 1.17302 364.719 2.08882 362.248 3.32532L363.143 5.1138C365.475 3.9467 367.868 3.09012 370.264 2.57412L369.843 0.61895ZM355.485 7.6769C353.442 9.30919 351.507 11.1739 349.723 13.244L351.238 14.5496C352.943 12.5711 354.789 10.7928 356.733 9.23946L355.485 7.6769ZM345.038 19.7542C343.699 22.0005 342.523 24.4 341.543 26.9322L343.408 27.654C344.347 25.2276 345.474 22.929 346.756 20.7782L345.038 19.7542ZM339.287 34.6043C338.761 37.1637 338.43 39.819 338.322 42.5539L340.321 42.6326C340.424 40.0079 340.741 37.461 341.246 35.0074L339.287 34.6043ZM338.641 50.5415C338.943 53.1006 339.443 55.7094 340.158 58.356L342.089 57.8342C341.399 55.2808 340.918 52.768 340.627 50.3067L338.641 50.5415ZM342.749 65.8792C343.74 68.2416 344.908 70.6237 346.265 73.0182L348.005 72.0321C346.686 69.7046 345.553 67.3933 344.594 65.1058L342.749 65.8792ZM350.559 79.7354C352.032 81.8002 353.652 83.8688 355.426 85.9362L356.944 84.6337C355.207 82.61 353.624 80.5884 352.187 78.5738L350.559 79.7354ZM360.774 91.6886C362.579 93.4876 364.506 95.2825 366.562 97.0703L367.874 95.5612C365.852 93.8022 363.958 92.0381 362.187 90.2722L360.774 91.6886ZM372.77 102.143C374.757 103.671 376.843 105.192 379.031 106.703L380.168 105.058C378.007 103.565 375.948 102.064 373.989 100.557L372.77 102.143ZM385.648 111.047C387.816 112.4 390.07 113.744 392.413 115.078L393.402 113.339C391.082 112.019 388.851 110.689 386.708 109.351L385.648 111.047ZM399.295 118.826C401.578 120.017 403.937 121.198 406.373 122.368L407.239 120.565C404.822 119.405 402.483 118.234 400.22 117.053L399.295 118.826ZM413.468 125.645C415.817 126.689 418.232 127.723 420.714 128.746L421.476 126.897C419.011 125.881 416.612 124.854 414.28 123.818L413.468 125.645ZM428.032 131.655C430.411 132.568 432.846 133.47 435.34 134.363L436.014 132.48C433.534 131.592 431.112 130.695 428.748 129.788L428.032 131.655ZM442.927 136.986C445.309 137.781 447.741 138.568 450.222 139.345L450.82 137.436C448.35 136.663 445.931 135.88 443.56 135.089L442.927 136.986ZM457.816 141.646C459.107 142.025 460.411 142.401 461.727 142.775L462.273 140.85C460.962 140.479 459.664 140.104 458.379 139.727L457.816 141.646ZM461.727 142.775C463.016 143.14 464.312 143.49 465.613 143.824L466.11 141.886C464.825 141.557 463.546 141.212 462.273 140.85L461.727 142.775ZM473.464 145.635C476.084 146.175 478.725 146.657 481.385 147.086L481.703 145.111C479.07 144.687 476.458 144.21 473.867 143.676L473.464 145.635ZM489.357 148.206C492.009 148.527 494.677 148.799 497.361 149.027L497.53 147.034C494.869 146.808 492.224 146.538 489.597 146.22L489.357 148.206ZM505.384 149.578C508.05 149.72 510.729 149.822 513.417 149.888L513.467 147.889C510.796 147.823 508.137 147.722 505.49 147.581L505.384 149.578ZM521.452 149.984C524.122 149.984 526.8 149.951 529.485 149.891L529.44 147.892C526.769 147.952 524.106 147.984 521.452 147.984L521.452 149.984ZM537.51 149.633C540.179 149.522 542.852 149.388 545.527 149.232L545.411 147.235C542.746 147.39 540.084 147.525 537.427 147.635L537.51 149.633ZM553.535 148.709C556.2 148.516 558.867 148.307 561.532 148.083L561.365 146.09C558.707 146.313 556.048 146.522 553.391 146.714L553.535 148.709ZM569.521 147.375C572.184 147.126 574.845 146.868 577.501 146.601L577.302 144.611C574.649 144.877 571.993 145.136 569.335 145.383L569.521 147.375ZM585.474 145.782C588.137 145.502 590.794 145.219 593.442 144.934L593.229 142.945C590.581 143.23 587.926 143.513 585.265 143.793L585.474 145.782ZM601.407 144.076C604.072 143.79 606.727 143.506 609.369 143.228L609.16 141.239C606.515 141.517 603.859 141.801 601.193 142.088L601.407 144.076ZM617.331 142.408C620.002 142.14 622.657 141.883 625.295 141.639L625.111 139.647C622.467 139.892 619.806 140.15 617.132 140.418L617.331 142.408ZM633.267 140.942C635.947 140.723 638.607 140.523 641.244 140.345L641.109 138.35C638.461 138.528 635.792 138.729 633.104 138.949L633.267 140.942ZM649.227 139.876C651.917 139.742 654.579 139.638 657.213 139.567L657.159 137.568C654.509 137.639 651.831 137.744 649.128 137.878L649.227 139.876ZM665.198 139.457C667.892 139.458 670.551 139.5 673.172 139.589L673.24 137.59C670.594 137.501 667.913 137.458 665.198 137.457L665.198 139.457ZM681.122 140.016C683.808 140.216 686.448 140.475 689.039 140.797L689.286 138.812C686.66 138.486 683.987 138.224 681.271 138.021L681.122 140.016ZM696.909 142.005C698.216 142.247 699.508 142.508 700.785 142.789L701.215 140.836C699.915 140.55 698.601 140.284 697.273 140.038L696.909 142.005ZM700.785 142.789C702.052 143.068 703.312 143.351 704.564 143.637L705.01 141.688C703.753 141.4 702.488 141.116 701.215 140.836L700.785 142.789ZM712.012 145.407C714.525 146.026 717.005 146.661 719.452 147.309L719.964 145.375C717.506 144.724 715.015 144.087 712.49 143.465L712.012 145.407ZM726.869 149.345C729.362 150.054 731.817 150.777 734.233 151.513L734.816 149.599C732.387 148.86 729.921 148.133 727.416 147.421L726.869 149.345ZM741.542 153.817C744.003 154.619 746.421 155.435 748.795 156.263L749.454 154.375C747.067 153.542 744.636 152.722 742.162 151.915L741.542 153.817ZM756.007 158.866C758.448 159.777 760.837 160.701 763.174 161.636L763.917 159.779C761.565 158.838 759.161 157.909 756.707 156.993L756.007 158.866ZM770.265 164.573C772.662 165.601 774.999 166.64 777.273 167.689L778.11 165.872C775.819 164.816 773.467 163.77 771.054 162.735L770.265 164.573ZM784.186 170.997C786.528 172.161 788.795 173.334 790.986 174.513L791.934 172.752C789.724 171.562 787.437 170.379 785.076 169.206L784.186 170.997ZM797.651 178.256C799.919 179.586 802.089 180.92 804.161 182.256L805.244 180.575C803.148 179.223 800.954 177.874 798.663 176.53L797.651 178.256ZM810.504 186.569C812.662 188.121 814.683 189.668 816.564 191.206L817.83 189.658C815.914 188.091 813.86 186.519 811.672 184.946L810.504 186.569ZM822.257 196.237C824.203 198.108 825.928 199.954 827.431 201.765L828.97 200.488C827.414 198.613 825.636 196.712 823.644 194.796L822.257 196.237ZM831.753 207.912C833.117 210.303 834.031 212.587 834.5 214.739L836.454 214.313C835.933 211.924 834.933 209.45 833.49 206.92L831.753 207.912ZM834.305 221.82C833.632 223.949 832.347 225.925 830.387 227.706L831.732 229.186C833.922 227.196 835.42 224.927 836.212 222.423L834.305 221.82ZM824.166 231.666C823.088 232.16 821.925 232.623 820.674 233.055L821.326 234.945C822.633 234.495 823.857 234.008 824.998 233.485L824.166 231.666ZM820.674 233.055C819.331 233.518 818.056 233.896 816.846 234.193L817.323 236.135C818.598 235.822 819.932 235.426 821.326 234.945L820.674 233.055ZM809.516 235.009C806.696 234.846 804.478 234.012 802.759 232.646L801.515 234.211C803.604 235.873 806.234 236.823 809.4 237.006L809.516 235.009ZM798.845 226.672C798.14 224.561 797.734 222.076 797.618 219.257L795.619 219.339C795.741 222.294 796.169 224.973 796.948 227.305L798.845 226.672ZM797.923 211.568C798.183 209.143 798.589 206.575 799.133 203.885L797.173 203.488C796.619 206.23 796.202 208.86 795.934 211.355L797.923 211.568ZM800.938 196.305C801.595 193.882 802.341 191.388 803.172 188.838L801.27 188.219C800.43 190.798 799.674 193.324 799.008 195.782L800.938 196.305ZM805.742 181.472C806.63 179.079 807.582 176.651 808.593 174.196L806.743 173.435C805.724 175.91 804.764 178.36 803.867 180.775L805.742 181.472ZM811.685 167.007C812.741 164.652 813.845 162.282 814.994 159.904L813.193 159.034C812.037 161.429 810.924 163.816 809.861 166.188L811.685 167.007ZM818.498 152.896C819.686 150.596 820.912 148.296 822.173 146.004L820.42 145.04C819.152 147.347 817.917 149.662 816.721 151.978L818.498 152.896ZM826.031 139.195C827.347 136.942 828.693 134.703 830.066 132.485L828.365 131.433C826.983 133.665 825.628 135.918 824.304 138.187L826.031 139.195ZM834.27 125.891C835.708 123.702 837.17 121.542 838.651 119.419L837.011 118.274C835.518 120.413 834.046 122.589 832.599 124.793L834.27 125.891ZM843.23 113.063C844.805 110.947 846.399 108.877 848.006 106.862L846.442 105.615C844.821 107.648 843.214 109.735 841.625 111.869L843.23 113.063ZM852.992 100.845C854.722 98.8385 856.462 96.9032 858.209 95.0489L856.753 93.6775C854.985 95.5546 853.225 97.5119 851.477 99.5396L852.992 100.845ZM863.69 89.5213C865.621 87.6771 867.553 85.9439 869.48 84.3337L868.197 82.7992C866.234 84.4401 864.269 86.203 862.309 88.0747L863.69 89.5213ZM875.638 79.6023C877.856 78.0521 880.055 76.6883 882.225 75.529L881.283 73.765C879.034 74.9664 876.767 76.3732 874.492 77.9629L875.638 79.6023ZM889.268 72.4685C891.805 71.6353 894.275 71.1342 896.664 70.9911L896.544 68.9947C893.96 69.1495 891.32 69.6896 888.644 70.5684L889.268 72.4685ZM904.056 71.7983C905.242 72.1511 906.405 72.6169 907.543 73.2019L908.457 71.4233C907.21 70.7819 905.932 70.2696 904.627 69.8813L904.056 71.7983ZM907.543 73.2019C908.594 73.7423 909.684 74.3869 910.814 75.1323L911.915 73.463C910.735 72.6841 909.582 72.0016 908.457 71.4233L907.543 73.2019ZM917.139 79.9895C919.016 81.6074 920.967 83.4262 922.99 85.4294L924.397 84.0085C922.349 81.9795 920.364 80.1283 918.445 78.4746L917.139 79.9895ZM928.533 91.1798C930.275 93.0614 932.062 95.0529 933.889 97.145L935.396 95.829C933.557 93.7246 931.758 91.7185 930 89.8208L928.533 91.1798ZM939.134 103.28C940.826 105.298 942.549 107.388 944.303 109.543L945.854 108.28C944.095 106.119 942.366 104.021 940.667 101.995L939.134 103.28ZM949.299 115.752C950.942 117.814 952.609 119.925 954.299 122.08L955.873 120.845C954.18 118.688 952.51 116.573 950.863 114.505L949.299 115.752ZM959.284 128.469C960.898 130.548 962.531 132.66 964.182 134.801L965.766 133.579C964.113 131.437 962.479 129.323 960.864 127.242L959.284 128.469ZM969.121 141.216C970.739 143.32 972.372 145.446 974.021 147.592L975.607 146.373C973.958 144.228 972.324 142.101 970.707 139.997L969.121 141.216ZM978.939 153.986C980.57 156.103 982.215 158.236 983.873 160.38L985.455 159.156C983.798 157.013 982.154 154.882 980.523 152.765L978.939 153.986ZM988.809 166.74C990.458 168.857 992.12 170.982 993.793 173.112L995.365 171.876C993.694 169.749 992.035 167.626 990.387 165.511L988.809 166.74ZM998.78 179.428C1000.45 181.532 1002.13 183.638 1003.82 185.742L1005.38 184.488C1003.69 182.388 1002.01 180.285 1000.35 178.184L998.78 179.428ZM1008.9 192.005C1010.6 194.089 1012.31 196.168 1014.03 198.24L1015.57 196.963C1013.85 194.896 1012.14 192.821 1010.45 190.741L1008.9 192.005ZM1019.21 204.427C1020.95 206.485 1022.7 208.532 1024.45 210.565L1025.97 209.258C1024.22 207.23 1022.47 205.188 1020.74 203.136L1019.21 204.427ZM1029.77 216.643C1031.56 218.667 1033.35 220.674 1035.16 222.661L1036.64 221.316C1034.84 219.336 1033.05 217.335 1031.26 215.318L1029.77 216.643ZM1040.63 228.59C1042.48 230.571 1044.34 232.528 1046.21 234.458L1047.64 233.067C1045.78 231.146 1043.93 229.197 1042.09 227.224L1040.63 228.59ZM1051.85 240.189C1053.78 242.114 1055.72 244.007 1057.66 245.864L1059.04 244.419C1057.11 242.571 1055.18 240.688 1053.26 238.773L1051.85 240.189ZM1063.55 251.368C1065.56 253.206 1067.58 255.002 1069.6 256.754L1070.91 255.242C1068.9 253.502 1066.9 251.717 1064.9 249.891L1063.55 251.368ZM1075.8 261.963C1077.91 263.678 1080.02 265.34 1082.13 266.946L1083.34 265.354C1081.25 263.762 1079.15 262.114 1077.07 260.413L1075.8 261.963ZM1088.71 271.75C1090.95 273.316 1093.19 274.814 1095.43 276.239L1096.51 274.55C1094.29 273.143 1092.07 271.661 1089.86 270.112L1088.71 271.75ZM1102.38 280.402C1104.78 281.759 1107.19 283.026 1109.6 284.196L1110.47 282.398C1108.1 281.246 1105.73 279.998 1103.36 278.66L1102.38 280.402ZM1117.01 287.491C1119.55 288.511 1122.1 289.418 1124.64 290.203L1125.23 288.292C1122.74 287.524 1120.25 286.636 1117.76 285.635L1117.01 287.491ZM1132.57 292.25C1135.26 292.805 1137.95 293.215 1140.64 293.471L1140.83 291.48C1138.21 291.232 1135.6 290.833 1132.97 290.291L1132.57 292.25ZM1148.79 293.76C1151.51 293.69 1154.22 293.451 1156.93 293.032L1156.63 291.056C1154 291.461 1151.37 291.693 1148.74 291.76L1148.79 293.76ZM1164.92 291.259C1167.48 290.513 1170.03 289.597 1172.57 288.502L1171.78 286.665C1169.32 287.728 1166.84 288.616 1164.36 289.338L1164.92 291.259ZM1179.85 284.844C1182.17 283.509 1184.48 282.016 1186.77 280.36L1185.6 278.739C1183.36 280.356 1181.11 281.811 1178.85 283.11L1179.85 284.844ZM1193.07 275.361C1194.11 274.457 1195.15 273.517 1196.19 272.541L1194.81 271.085C1193.8 272.043 1192.78 272.964 1191.76 273.85L1193.07 275.361ZM1196.19 272.541C1197.17 271.61 1198.15 270.667 1199.12 269.712L1197.72 268.286C1196.76 269.231 1195.79 270.164 1194.81 271.085L1196.19 272.541ZM1204.84 263.843C1206.69 261.862 1208.51 259.838 1210.3 257.773L1208.79 256.464C1207.01 258.51 1205.21 260.515 1203.38 262.477L1204.84 263.843ZM1215.55 251.492C1217.25 249.383 1218.93 247.238 1220.58 245.061L1218.98 243.853C1217.34 246.015 1215.68 248.143 1213.99 250.235L1215.55 251.492ZM1225.41 238.481C1226.99 236.271 1228.55 234.033 1230.08 231.769L1228.43 230.646C1226.9 232.898 1225.36 235.122 1223.79 237.318L1225.41 238.481ZM1234.58 224.971C1236.06 222.69 1237.51 220.385 1238.95 218.062L1237.25 217.008C1235.82 219.322 1234.37 221.615 1232.9 223.886L1234.58 224.971ZM1243.18 211.101C1244.57 208.77 1245.95 206.423 1247.31 204.062L1245.58 203.061C1244.22 205.415 1242.85 207.754 1241.47 210.076L1243.18 211.101ZM1251.35 196.977C1252.68 194.612 1254 192.235 1255.31 189.851L1253.55 188.888C1252.25 191.268 1250.93 193.639 1249.61 195.998L1251.35 196.977ZM1259.2 182.689C1260.49 180.3 1261.77 177.906 1263.05 175.508L1261.28 174.568C1260.01 176.963 1258.73 179.355 1257.44 181.74L1259.2 182.689ZM1266.86 168.31C1268.13 165.907 1269.39 163.504 1270.66 161.102L1268.89 160.171C1267.62 162.572 1266.36 164.975 1265.09 167.376L1266.86 168.31ZM1274.45 153.898C1275.71 151.493 1276.98 149.092 1278.25 146.7L1276.48 145.763C1275.21 148.158 1273.95 150.56 1272.68 152.966L1274.45 153.898ZM1282.08 139.515C1283.36 137.121 1284.65 134.737 1285.94 132.366L1284.19 131.409C1282.89 133.784 1281.6 136.172 1280.32 138.57L1282.08 139.515ZM1289.87 125.231C1291.19 122.86 1292.52 120.505 1293.86 118.168L1292.13 117.174C1290.78 119.518 1289.45 121.88 1288.13 124.257L1289.87 125.231ZM1297.96 111.127C1299.34 108.786 1300.74 106.467 1302.15 104.174L1300.45 103.126C1299.03 105.43 1297.63 107.758 1296.24 110.108L1297.96 111.127ZM1306.47 97.3033C1307.95 95.0095 1309.44 92.7458 1310.95 90.5153L1309.3 89.3939C1307.78 91.6382 1306.28 93.915 1304.79 96.2211L1306.47 97.3033ZM1315.57 83.8804C1317.17 81.6615 1318.78 79.4811 1320.42 77.3426L1318.83 76.1269C1317.18 78.2829 1315.55 80.48 1313.95 82.7147L1315.57 83.8804ZM1325.45 70.9946C1327.18 68.8998 1328.93 66.8524 1330.71 64.8561L1329.22 63.5246C1327.42 65.5419 1325.65 67.6095 1323.91 69.7236L1325.45 70.9946ZM1336.24 58.92C1338.14 56.9808 1340.06 55.0993 1342.03 53.2794L1340.67 51.8125C1338.68 53.656 1336.73 55.5609 1334.81 57.5228L1336.24 58.92ZM1348.1 47.9518C1350.18 46.2248 1352.31 44.5661 1354.47 42.9798L1353.29 41.3658C1351.09 42.9767 1348.94 44.6603 1346.82 46.4121L1348.1 47.9518ZM1361.13 38.4293C1363.4 36.9849 1365.72 35.6177 1368.09 34.332L1367.13 32.5745C1364.72 33.8827 1362.37 35.2734 1360.06 36.7419L1361.13 38.4293ZM1375.3 30.7449C1377.73 29.6415 1380.22 28.6211 1382.76 27.6878L1382.07 25.8106C1379.48 26.761 1376.95 27.8 1374.47 28.9234L1375.3 30.7449ZM1390.44 25.1833C1392.98 24.4566 1395.57 23.8137 1398.22 23.2581L1397.81 21.3007C1395.12 21.866 1392.47 22.5204 1389.89 23.2603L1390.44 25.1833ZM1406.2 21.8768C1408.82 21.5168 1411.48 21.2383 1414.21 21.0444L1414.06 19.0495C1411.3 19.2464 1408.59 19.5295 1405.93 19.8955L1406.2 21.8768ZM1422.25 20.7223C1424.91 20.6966 1427.62 20.7486 1430.39 20.8808L1430.48 18.8831C1427.68 18.7491 1424.93 18.6964 1422.23 18.7224L1422.25 20.7223ZM1438.37 21.4732C1441.03 21.74 1443.75 22.0785 1446.51 22.4909L1446.8 20.5129C1444.01 20.0958 1441.26 19.7532 1438.57 19.4832L1438.37 21.4732ZM1454.35 23.8395C1456.99 24.35 1459.67 24.9254 1462.39 25.5675L1462.85 23.6209C1460.1 22.9729 1457.4 22.3918 1454.74 21.876L1454.35 23.8395ZM1470.12 27.5398C1472.7 28.246 1475.31 29.0098 1477.96 29.8327L1478.56 27.9225C1475.88 27.0932 1473.25 26.3231 1470.65 25.6108L1470.12 27.5398ZM1485.63 32.3398C1488.13 33.1985 1490.67 34.1079 1493.23 35.069L1493.94 33.1959C1491.35 32.2286 1488.8 31.313 1486.28 30.4482L1485.63 32.3398ZM1500.93 38.0651C1503.34 39.04 1505.79 40.0591 1508.26 41.1232L1509.05 39.2863C1506.56 38.2163 1504.11 37.1914 1501.68 36.2107L1500.93 38.0651ZM1515.76 44.4512C1517.02 45.0287 1518.3 45.6175 1519.58 46.218L1520.42 44.4073C1519.14 43.804 1517.86 43.2122 1516.59 42.6318L1515.76 44.4512Z" fill="#BEEB42"/>
</svg>
