<svg width="113" height="104" viewBox="0 0 113 104" fill="none" xmlns="http://www.w3.org/2000/svg">
<g id="Group 289362">
<rect id="Rectangle 79" x="0.5" width="112" height="104" rx="20" fill="white"/>
<g id="Group 289359">
<path id="Vector 481" d="M50.915 20V28.9252" stroke="#BEEB42" stroke-width="3" stroke-linecap="round"/>
<path id="Vector 483" d="M37.5 23.5L44 30" stroke="#BEEB42" stroke-width="3" stroke-linecap="round"/>
<path id="Vector 482" d="M58.0093 30.9849L64.5316 24.577" stroke="#BEEB42" stroke-width="3" stroke-linecap="round"/>
<path id="Vector 480" d="M30.3184 40.9399C29.1283 40.9399 27.6103 42.7707 27 43.6861L35.3531 52.1537L41.4177 71.034C44.1639 73.4369 50.1598 78.7921 52.1737 80.989C54.6911 83.7353 59.8403 84.193 61.7855 83.8497C63.3417 83.5751 67.2017 81.1416 68.8799 79.6159C72.9611 75.5729 81.5935 66.9788 82.0389 66.3425C82.8399 65.1982 83.5265 63.4818 83.5265 62.452C83.5265 61.4222 82.7255 60.6212 81.238 59.7058C80.0479 58.9735 75.059 62.452 77.1186 60.3923C77.6526 60.0109 78.9952 58.5615 79.1783 58.1038C79.636 56.9596 80.2154 54.749 79.636 53.7556C78.835 52.3825 78.2629 51.8104 76.2032 51.8104C74.639 51.8104 70.3675 55.0143 72.1983 53.4124C73.1137 52.3444 75.5167 49.4074 75.5167 48.492C75.5167 47.3478 74.3724 45.9747 72.7704 45.0592C71.4889 44.3269 66.2947 48.492 66.9347 47.8055C71.1303 43.3047 80.5972 33.1589 81.6957 32.2435C83.0688 31.0993 82.746 28.0772 81.0091 27.2088C77.5763 25.4924 75.2878 27.8953 73.8003 29.2684L48.5121 55.5864L47.5967 54.4422C45.6896 51.6578 41.4177 45.6085 39.5869 43.6861C37.2983 41.2832 31.8059 40.9399 30.3184 40.9399Z" stroke="#6D38FB" stroke-width="3" stroke-linecap="round"/>
</g>
</g>
</svg>
