<svg width="113" height="104" viewBox="0 0 113 104" fill="none" xmlns="http://www.w3.org/2000/svg">
<g id="Group 289363">
<rect id="Rectangle 80" x="0.5" width="112" height="104" rx="20" fill="white"/>
<g id="Group 289360">
<path id="Vector 483" d="M46.2404 79.5901C44.9784 80.4224 41.4371 81.0905 39.6043 81.0905V87.0925H15.9038V70.5872C15.5877 69.8994 14.5386 68.2614 12.8701 67.2111C10.7844 65.8982 9.82554 54.8189 10.026 53.3316C10.7845 47.7048 13.3652 43.6469 19.127 40.39C24.436 37.389 29.5669 36.501 36.1914 38.1392C41.121 39.3584 48.8949 44.5163 48.8949 50.7058V55.9575C50.4117 59.3335 53.4454 66.3108 53.4454 67.2111C53.4454 68.1114 52.4342 68.4615 51.9285 68.524H48.8949C48.8317 69.2117 48.7432 70.9998 48.8949 72.6503C49.0845 74.7135 47.9468 78.4647 46.2404 79.5901Z" stroke="#6D38FB" stroke-width="3" stroke-linecap="round"/>
<path id="Vector 484" d="M67.7596 79.5901C69.0216 80.4224 72.5629 81.0905 74.3957 81.0905V87.0925H98.0962V70.5872C98.4123 69.8994 99.4614 68.2614 101.13 67.2111C103.216 65.8982 104.174 54.8189 103.974 53.3316C103.215 47.7048 100.635 43.6469 94.873 40.39C89.564 37.389 84.4331 36.501 77.8086 38.1392C72.879 39.3584 65.1051 44.5163 65.1051 50.7058V55.9575C63.5883 59.3335 60.5546 66.3108 60.5546 67.2111C60.5546 68.1114 61.5658 68.4615 62.0715 68.524H65.1051C65.1683 69.2117 65.2568 70.9998 65.1051 72.6503C64.9155 74.7135 66.0532 78.4647 67.7596 79.5901Z" stroke="#6D38FB" stroke-width="3" stroke-linecap="round"/>
<circle id="Ellipse 23" cx="39.6216" cy="25.084" r="2.76471" fill="#BEEB42"/>
<circle id="Ellipse 24" cx="47.5211" cy="20.3445" r="2.76471" fill="#BEEB42"/>
<circle id="Ellipse 25" cx="57.0001" cy="18.7647" r="2.76471" fill="#BEEB42"/>
<ellipse id="Ellipse 26" cx="66.084" cy="20.3445" rx="3.15966" ry="2.76471" fill="#BEEB42"/>
<circle id="Ellipse 27" cx="74.378" cy="25.084" r="2.76471" fill="#BEEB42"/>
<circle id="Ellipse 29" cx="84.2521" cy="46.0168" r="2.36975" fill="#BEEB42"/>
<ellipse id="Ellipse 30" cx="84.2521" cy="53.5211" rx="2.36975" ry="2.76471" fill="#BEEB42"/>
<ellipse id="Ellipse 32" cx="29.3531" cy="46.0168" rx="2.76471" ry="2.36975" fill="#BEEB42"/>
<ellipse id="Ellipse 33" cx="21.8488" cy="53.5211" rx="2.36975" ry="2.76471" fill="#BEEB42"/>
<circle id="Ellipse 34" cx="29.3531" cy="53.5211" r="2.76471" fill="#BEEB42"/>
<circle id="Ellipse 35" cx="37.252" cy="53.5211" r="2.76471" fill="#BEEB42"/>
<ellipse id="Ellipse 36" cx="37.252" cy="61.0253" rx="2.76471" ry="2.36975" fill="#BEEB42"/>
<ellipse id="Ellipse 37" cx="29.3531" cy="61.0253" rx="2.76471" ry="2.36975" fill="#BEEB42"/>
<circle id="Ellipse 38" cx="21.8488" cy="61.0253" r="2.36975" fill="#BEEB42"/>
<circle id="Ellipse 31" cx="84.2521" cy="61.0253" r="2.36975" fill="#BEEB42"/>
</g>
</g>
</svg>
