<svg width="195" height="68" viewBox="0 0 195 68" fill="none" xmlns="http://www.w3.org/2000/svg">
<path id="Circle 4" d="M166.609 12.6499C168.494 13.3188 170.144 13.9041 171.793 14.4894C178.627 16.9979 184.872 20.1753 189.585 24.6069C196.066 30.5436 196.773 37.2328 191.471 43.8384C188.761 47.2666 184.99 49.9423 180.63 52.2835C172.029 56.7988 162.367 59.6417 152.234 61.8993C137.387 65.1603 122.187 66.9162 106.752 67.5015C90.0202 68.1704 73.4064 67.5851 56.7926 65.7456C44.774 64.4914 32.8734 62.4846 21.6796 58.8055C17.32 57.3841 12.9603 55.5445 9.18981 53.3705C-0.589961 47.6011 -2.71102 37.3164 3.53389 29.3729C6.59744 25.443 8.83633 22.2492 13.6673 19.4063C25.2145 12.6334 40.65 9.63974 54.7895 6.54597C74.2312 2.2816 94.0264 0.525674 114.293 1.02737C127.725 1.36183 141.158 2.2816 154.119 4.95728C158.007 5.70982 161.66 6.88044 165.431 7.88382C166.373 8.13467 167.198 8.55274 168.023 8.97082C170.144 10.1414 170.026 11.1448 167.669 12.2318C167.434 12.399 167.08 12.4827 166.609 12.6499ZM108.873 5.20813C108.873 5.12452 108.873 5.0409 108.873 4.95728C108.166 4.95728 107.341 4.87367 106.634 4.87367C90.2559 4.95728 74.1134 6.62959 58.3243 9.9742C44.6562 12.8171 29.6729 14.4866 18.4791 20.925C14.0017 23.5171 9.32632 27.4546 6.38061 31.05C0.960492 37.7392 2.8787 47.6011 11.3624 52.2835C14.5437 54.0395 20.5199 56.1298 24.1726 57.3005C34.0702 60.5615 48.478 63.8224 58.3243 63.8224C73.6421 65.7456 85.7784 64.0733 101.214 63.8224C119.36 63.488 137.269 61.4812 154.472 57.3005C162.603 55.2937 170.379 52.8688 177.331 49.2734C181.573 47.0158 185.226 44.3401 187.582 40.9119C190.175 37.0656 190.41 33.1356 187.347 29.3729C186.168 27.9515 184.637 26.53 183.105 25.3594C178.038 21.5131 171.911 18.8374 165.077 16.747C156.593 14.155 147.874 12.2318 138.801 10.9776C126.783 9.22166 114.646 8.38551 102.51 10.1414C101.921 10.225 101.096 10.3923 100.625 10.225C99.8 9.89059 98.7395 9.47251 98.5039 8.97082C98.2682 8.46913 98.9752 7.63297 99.5643 7.2149C100.271 6.79682 101.332 6.62959 102.274 6.46236C104.513 5.87705 106.634 5.54259 108.873 5.20813ZM146.578 7.88382C152.352 9.22166 158.007 10.4759 163.781 11.8137C158.479 9.38889 152.705 8.38551 146.578 7.88382Z" fill="#BEEB42"/>
</svg>
