<svg width="156" height="30" viewBox="0 0 156 30" fill="none" xmlns="http://www.w3.org/2000/svg">
<path d="M22.618 24.5731C21.1225 24.2707 19.8139 24.0061 18.5053 23.7415C13.0842 22.6084 8.1344 21.1826 4.40761 19.2096C-0.71738 16.5658 -1.24992 13.6126 2.99365 10.7197C5.16281 9.21818 8.17159 8.05272 11.6472 7.03707C18.5039 5.07909 26.1962 3.86285 34.2606 2.90662C46.0757 1.5262 56.2043 0.811023 68.4758 0.613085C81.778 0.383322 95.479 -0.263106 108.676 0.613085C118.224 1.21318 128.119 0.758363 137 2.42477C140.459 3.06875 145.013 3.9527 148 4.92631C155.748 7.50921 157.311 14.354 152.312 17.8333C149.86 19.5547 148.066 20.9547 144.214 22.1898C135.006 25.132 122.723 26.3922 111.471 27.7017C95.999 29.5067 80.2571 30.204 64.1504 29.9036C53.475 29.7037 42.8022 29.2456 32.5118 28.0148C29.4244 27.6677 26.5262 27.1372 23.5337 26.6799C22.7855 26.5656 22.1317 26.3779 21.478 26.1903C19.7973 25.6657 19.8954 25.2236 21.7733 24.7534C21.9613 24.6805 22.2427 24.645 22.618 24.5731ZM68.4769 28.0807C68.4766 28.1176 68.4762 28.1545 68.4758 28.1914C69.0378 28.1941 69.693 28.2342 70.2549 28.237C83.2735 28.264 96.1118 27.5894 108.676 26.1758C119.553 24.9752 131.47 24.2972 140.396 21.5011C143.966 20.3753 147.699 18.6568 150.057 17.0825C154.394 14.1532 152.991 7.49568 146.268 5.39728C143.747 4.61038 137.91 3.60947 135.012 3.0789C127.159 1.60194 115.277 1.49378 107.45 1.45536C95.2836 0.547345 85.1316 2.20702 72.8615 2.25743C58.437 2.33416 46.1531 3.14941 32.4609 4.92631C25.9898 5.77971 19.7978 6.81891 14.2563 8.37764C10.8747 9.35686 7.95965 10.5228 6.07145 12.0257C3.99411 13.7121 3.78952 15.4445 6.20804 17.1161C7.13835 17.7477 8.34965 18.3806 9.56203 18.9029C13.5724 20.6192 18.4307 21.8233 23.8536 22.7719C30.5854 23.9483 37.5075 24.8306 44.7136 25.4192C54.2588 26.2406 63.9017 26.6567 73.5561 25.9296C74.0247 25.895 74.681 25.8245 75.0549 25.9001C75.709 26.0508 76.5501 26.2394 76.7352 26.4616C76.9203 26.6838 76.3547 27.0498 75.8846 27.2319C75.3208 27.4136 74.4772 27.4832 73.7272 27.5533C71.9452 27.8027 70.2579 27.9419 68.4769 28.0807ZM38.5187 26.7534C33.9354 26.1408 29.4454 25.5656 24.8621 24.9529C29.066 26.0432 33.6507 26.5083 38.5187 26.7534Z" fill="#BEEB42"/>
</svg>
