<svg width="71" height="72" viewBox="0 0 71 72" fill="none" xmlns="http://www.w3.org/2000/svg">
<path d="M53.3572 57.6688C52.0887 57.8655 50.877 58.3316 49.8037 59.0357C62.027 46.5649 58.4132 29.4399 43.155 21.3956C29.7926 14.6105 13.1012 18.4667 1.08658 26.3892C1.04246 26.4191 1.00503 26.4578 0.976647 26.5028C0.948265 26.5479 0.929555 26.5984 0.921708 26.6511C0.913861 26.7038 0.917043 26.7575 0.931057 26.8089C0.945071 26.8603 0.969612 26.9082 1.00312 26.9496C1.05994 27.0203 1.13982 27.0689 1.22879 27.0867C1.31776 27.1045 1.41016 27.0905 1.48986 27.0471C13.395 20.5486 29.2415 17.4024 41.494 24.3082C53.9465 32.3278 55.8666 45.9144 48.8897 58.4626C48.6394 56.5557 47.9912 54.7226 46.9873 53.0821C46.9686 53.0509 46.9398 53.0272 46.9057 53.0149C46.8715 53.0026 46.8342 53.0024 46.7999 53.0145C46.7657 53.0266 46.7367 53.0502 46.7179 53.0812C46.699 53.1122 46.6915 53.1488 46.6965 53.1847C46.993 55.6669 47.275 58.0065 47.0663 60.8358C46.9379 62.5435 46.9545 63.2121 48.4605 61.9114C50.2895 60.3316 52.2943 58.6001 54.7018 58.0416C54.7487 58.0275 54.7894 57.9979 54.8172 57.9575C54.8449 57.9172 54.858 57.8686 54.8544 57.8198C54.8507 57.771 54.8305 57.7249 54.797 57.6891C54.7636 57.6534 54.7189 57.6302 54.6705 57.6233C54.2325 57.5855 53.7915 57.6008 53.3572 57.6688Z" fill="#BEEB42"/>
<path d="M26.5507 13.4847C34.3019 11.5043 43.658 13.4294 48.6521 19.9105C48.6759 19.9452 48.6866 19.9873 48.6823 20.0292C48.6779 20.071 48.6588 20.11 48.6284 20.1391C48.5979 20.1682 48.5581 20.1854 48.5161 20.1879C48.474 20.1903 48.4325 20.1776 48.399 20.1522C42.305 15.205 34.3454 13.7166 26.5928 13.8276C26.5511 13.8264 26.5111 13.8103 26.4802 13.7822C26.4493 13.754 26.4296 13.7158 26.4245 13.6743C26.4194 13.6328 26.4293 13.5909 26.4524 13.5561C26.4756 13.5213 26.5104 13.496 26.5507 13.4847Z" fill="#BEEB42"/>
<path d="M23.52 14.3339C22.617 14.8246 21.5919 15.0458 20.5668 14.9711C20.5288 14.9693 20.4921 14.9565 20.4612 14.9343C20.4303 14.9121 20.4064 14.8814 20.3926 14.846C20.3787 14.8105 20.3754 14.7718 20.383 14.7345C20.3906 14.6972 20.4089 14.6629 20.4356 14.6358C20.8426 14.2673 21.3393 14.0122 21.8759 13.8962C22.4126 13.7801 22.9703 13.807 23.4932 13.9743C23.5292 13.9872 23.5606 14.0102 23.5837 14.0405C23.6068 14.0709 23.6207 14.1073 23.6235 14.1454C23.6263 14.1834 23.6181 14.2215 23.5997 14.255C23.5814 14.2884 23.5537 14.3158 23.52 14.3339Z" fill="#BEEB42"/>
</svg>
