<svg width="73" height="72" viewBox="0 0 73 72" fill="none" xmlns="http://www.w3.org/2000/svg">
<g id="Frame 5041">
<g id="Group 289330">
<path id="Vector 448" d="M25.5045 18.399V12.6475" stroke="#BEEB42" stroke-width="3" stroke-linecap="round"/>
<path id="Vector 449" d="M20.9082 20.1243L16.7521 16.1484" stroke="#BEEB42" stroke-width="3" stroke-linecap="round"/>
<path id="Vector 450" d="M18.7049 24.598L12.9539 24.6785" stroke="#BEEB42" stroke-width="3" stroke-linecap="round"/>
<path id="Vector 451" d="M56.3032 55.2508L52.262 51.1582" stroke="#BEEB42" stroke-width="3" stroke-linecap="round"/>
<path id="Vector 452" d="M60.0065 47.1575L54.2623 47.4502" stroke="#BEEB42" stroke-width="3" stroke-linecap="round"/>
<path id="Vector 453" d="M47.7606 58.9066L47.9789 53.1592" stroke="#BEEB42" stroke-width="3" stroke-linecap="round"/>
<path id="Vector 447" d="M25.5046 24.4001L18.0024 31.152C17.7524 31.8189 18.3027 32.9525 20.5033 34.1528C23.254 35.6532 26.0047 38.6541 24.7543 40.1545C23.5039 41.6549 21.7536 44.4056 19.753 44.1556C17.7525 43.9055 15.5019 41.6549 14.7516 38.9041C14.1515 36.7035 11.0005 37.9039 10.0002 38.9041C6.99936 41.9049 5.29905 42.8552 7.49965 45.656C9.70026 48.4568 20.0865 58.8263 25.0045 63.6609C26.0048 64.7446 28.8055 66.2617 32.0064 63.6609C35.2073 61.0602 35.7573 60.6601 34.7571 58.4095C33.5067 55.5958 28.7054 55.6087 28.5053 53.4081C28.2553 50.6574 30.506 48.6568 32.0064 48.1567C33.5068 47.6565 35.0071 47.4065 36.7576 50.4073C38.5081 53.4081 39.2584 54.6585 41.0089 53.9083C42.4092 53.3081 46.5937 48.9902 48.5109 46.9063" stroke="#BEEB42" stroke-width="3"/>
<path id="Vector 446" d="M34.0069 32.6531L25.5045 24.1507C28.3386 21.7334 32.7565 16.3987 38.258 11.1472C43.5947 6.05312 44.7598 5.3959 47.5929 6.39576C49.5934 8.39631 54.3247 11.8171 53.8446 13.1477C52.762 16.1485 51.0939 15.4364 47.5929 17.687C43.7256 20.1731 51.594 26.9395 53.8446 25.4391C55.6451 24.2387 53.8446 21.4 59.0137 19.1494C61.5144 19.1494 64.4152 24.2508 66.0157 26.6514C67.6161 29.0521 64.8487 31.3194 63.515 32.6531L48.5108 46.907C46.1769 44.6564 40.0085 40.1551 40.0085 38.1546C40.0085 35.1538 44.5931 36.5419 45.7601 34.1535C47.5929 30.4025 44.7598 29.4022 42.7593 27.4016C40.7587 25.4011 37.2578 26.6514 36.5075 29.1522C35.8858 31.2248 36.0074 33.6534 34.0069 32.6531Z" stroke="#6333E3" stroke-width="3"/>
</g>
</g>
</svg>
