<svg width="73" height="72" viewBox="0 0 73 72" fill="none" xmlns="http://www.w3.org/2000/svg">
<g id="Frame 5041">
<g id="Group 289335">
<g id="Group 289333">
<g id="Group 289334">
<g id="Vector 458">
<path d="M37.0612 63.9665H30.0805V49.1995C30.0805 44.6351 30.4151 42.1508 28.0668 39.8025C25.3819 37.1175 22.9655 36.6701 20.8176 36.7148H12.7629V41.1449L3.5 32.6874L12.7629 25.0355C12.7629 27.3176 12.4281 28.4466 13.8369 29.0629C15.9848 30.0025 23.9052 29.734 28.0668 31.0764C32.2284 32.4189 35.4289 37.3348 36.3564 39.5376C37.4304 42.0882 37.1955 49.5576 37.0612 53.4954V63.9665Z" stroke="#BEEB42" stroke-width="3" stroke-linecap="round"/>
<path d="M34.3695 29.0764C32.6243 27.4655 32.0463 27.5811 30.6778 27.0629V19.1423C30.6778 17.5314 27.8139 17.3972 26.3819 17.5314L34.9736 8L43.1625 17.9341C42.715 17.8894 40.9072 17.8267 39.4037 17.9341C37.9001 18.0415 37.927 20.6638 38.0612 21.4245L38.684 34.7148C37.073 32.4326 35.6638 30.2712 34.3695 29.0764Z" stroke="#BEEB42" stroke-width="3" stroke-linecap="round"/>
</g>
</g>
</g>
<path id="Vector 458_2" d="M42.0071 49.8632V42.2486C42.8126 41.8011 44.5514 41.3385 46.5715 40.5332C49.9015 39.2057 53.1111 39.1402 54.7716 38.5867C56.7853 37.9154 57.5447 33.7975 57.5 32.4998L68.5 41.9998L56.3713 50.4998V44.7619H55.4316C49.9015 44.7619 47.981 45.9827 46.5715 46.7756C43.6666 48.4096 42.7231 49.013 42.0071 49.8632Z" stroke="#6333E3" stroke-width="3" stroke-linecap="round"/>
</g>
</g>
</svg>
