<svg width="85" height="109" viewBox="0 0 85 109" fill="none" xmlns="http://www.w3.org/2000/svg">
<g id="Group 32">
<path id="Vector" d="M44.3604 73.624C46.9958 74.9383 49.5279 76.3649 52.0661 77.8074L55.8298 80.0243L59.4978 82.2776C60.7073 83.0581 62.03 83.7042 63.3412 84.4642C64.6083 85.1556 65.7374 86.0742 66.6721 87.1743C68.7779 89.577 70.2146 92.4914 70.8381 95.6249L70.2984 96.2684C67.1061 96.2337 63.9792 95.3598 61.2315 93.7345C59.9711 93.0219 58.8565 92.0781 57.9461 90.9523C57.0243 89.8251 56.1382 88.6479 55.1549 87.5988L52.2186 84.3917L49.3659 81.1164C47.4904 78.8741 45.605 76.6539 43.8388 74.3153L44.3604 73.624Z" fill="#BEEB42"/>
<path id="Vector_2" d="M36.4281 73.1586C35.1199 75.8099 33.6872 78.3261 32.2508 80.8803L30.0339 84.6439L27.7745 88.296C27.0001 89.5215 26.3479 90.8282 25.588 92.1394C24.9026 93.4135 23.9856 94.5486 22.884 95.4863C20.4763 97.5848 17.564 99.0205 14.4333 99.6522L13.7838 99.0965C13.8185 95.9043 14.6923 92.7774 16.3177 90.0297C17.0423 88.7778 17.9844 87.6652 19.0998 86.7443C20.2331 85.8384 21.4104 84.9523 22.4753 83.963L25.6604 81.0169L28.9358 78.1641C31.178 76.2886 33.3983 74.4033 35.7528 72.631L36.4281 73.1586Z" fill="#BEEB42"/>
<path id="Vector_3" d="M40.4922 39.0614C37.8629 37.763 35.3248 36.3205 32.7926 34.8939L29.0289 32.677L25.3768 30.4177C24.1514 29.6433 22.8227 28.9812 21.5175 28.2372C20.2491 27.5384 19.1183 26.6147 18.1805 25.5112C16.0774 23.1136 14.6427 20.2045 14.0206 17.0764L14.5543 16.4171C17.7465 16.4518 20.8734 17.3256 23.6211 18.9509C24.8815 19.6635 25.9961 20.6073 26.9066 21.7331C27.8284 22.8603 28.7145 24.0375 29.7039 25.1025L32.7297 28.2573L35.5884 31.5486C37.4579 33.7749 39.3273 36.0012 41.1155 38.3497L40.4922 39.0614Z" fill="#BEEB42"/>
<path id="Vector_4" d="M47.3897 35.5596C48.704 32.9243 50.1306 30.3921 51.5572 27.86L53.7741 24.0963L56.0274 20.4282C56.8079 19.2187 57.4699 17.89 58.214 16.5849C58.9018 15.3153 59.8209 14.1856 60.9241 13.254C63.3217 11.1508 66.2308 9.71609 69.3588 9.09406L70.0181 9.62771C69.9835 12.8199 69.1096 15.9469 67.4843 18.6946C66.7718 19.9549 65.8279 21.0695 64.7021 21.98C63.5749 22.9018 62.3977 23.7879 61.3327 24.7773L58.1416 27.7075L54.8502 30.5663C52.6239 32.4357 50.4037 34.321 48.0491 36.0933L47.3897 35.5596Z" fill="#BEEB42"/>
</g>
</svg>
