<svg width="140" height="40" viewBox="0 0 140 40" fill="none" xmlns="http://www.w3.org/2000/svg">
<path d="M42.5 0H133.536C136.692 0 139.25 2.55837 139.25 5.71429V40H42.5V0Z" fill="white"/>
<rect x="0.714286" y="0.714286" width="116.321" height="38.5714" rx="5" stroke="white" stroke-width="1.42857"/>
<path d="M127.75 26.2857H128.504V32H127.75V30.88C127.224 31.7181 126.455 32.1371 125.441 32.1371C124.626 32.1371 123.929 31.8476 123.35 31.2686C122.779 30.6895 122.493 29.981 122.493 29.1429C122.493 28.3048 122.779 27.5962 123.35 27.0171C123.929 26.4381 124.626 26.1486 125.441 26.1486C126.455 26.1486 127.224 26.5676 127.75 27.4057V26.2857ZM123.899 30.7543C124.333 31.1886 124.866 31.4057 125.499 31.4057C126.131 31.4057 126.664 31.1886 127.099 30.7543C127.533 30.3124 127.75 29.7752 127.75 29.1429C127.75 28.5105 127.533 27.9771 127.099 27.5429C126.664 27.101 126.131 26.88 125.499 26.88C124.866 26.88 124.333 27.101 123.899 27.5429C123.464 27.9771 123.247 28.5105 123.247 29.1429C123.247 29.7752 123.464 30.3124 123.899 30.7543ZM130.867 24.9143C130.76 25.021 130.631 25.0743 130.479 25.0743C130.326 25.0743 130.197 25.021 130.09 24.9143C129.983 24.8076 129.93 24.6781 129.93 24.5257C129.93 24.3733 129.983 24.2438 130.09 24.1371C130.197 24.0305 130.326 23.9771 130.479 23.9771C130.631 23.9771 130.76 24.0305 130.867 24.1371C130.974 24.2438 131.027 24.3733 131.027 24.5257C131.027 24.6781 130.974 24.8076 130.867 24.9143ZM130.101 32V26.2857H130.856V32H130.101Z" fill="#5C27C0"/>
<path d="M9.809 33V15.8535H14.4595V33H9.809ZM14.4595 23.5215L12.649 22.3145C12.862 20.2082 13.4773 18.5515 14.495 17.3445C15.5127 16.1138 16.98 15.4985 18.897 15.4985C19.7253 15.4985 20.4708 15.6405 21.1335 15.9245C21.7962 16.1848 22.3997 16.6227 22.944 17.238L20.033 20.575C19.7727 20.291 19.4532 20.078 19.0745 19.936C18.7195 19.794 18.3053 19.723 17.832 19.723C16.838 19.723 16.0215 20.0425 15.3825 20.6815C14.7672 21.2968 14.4595 22.2435 14.4595 23.5215ZM32.8696 33.355C31.0236 33.355 29.3787 32.9645 27.9351 32.1835C26.5151 31.3788 25.3909 30.302 24.5626 28.953C23.7579 27.604 23.3556 26.0775 23.3556 24.3735C23.3556 22.6932 23.7579 21.1903 24.5626 19.865C25.3909 18.516 26.4914 17.451 27.8641 16.67C29.2604 15.8653 30.8342 15.463 32.5856 15.463C34.4316 15.463 35.9817 15.8772 37.2361 16.7055C38.4904 17.5102 39.4844 18.6698 40.2181 20.1845L29.9586 30.2665L27.4381 27.7105L36.7036 18.6225L36.5616 21.8885C36.2539 21.1075 35.7806 20.504 35.1416 20.078C34.5262 19.652 33.6979 19.439 32.6566 19.439C31.6626 19.439 30.7987 19.652 30.0651 20.078C29.3314 20.4803 28.7634 21.0483 28.3611 21.782C27.9824 22.5157 27.7931 23.3558 27.7931 24.3025C27.7931 25.3202 28.0061 26.2195 28.4321 27.0005C28.8581 27.7578 29.4497 28.3495 30.2071 28.7755C30.9881 29.2015 31.8992 29.4145 32.9406 29.4145C33.8636 29.4145 34.6801 29.2725 35.3901 28.9885C36.1001 28.6808 36.7272 28.2312 37.2716 27.6395L40.0051 30.373C39.1294 31.367 38.0762 32.1125 36.8456 32.6095C35.6386 33.1065 34.3132 33.355 32.8696 33.355Z" fill="white"/>
<path d="M66.3658 15.25H70.4128L64.8393 33H61.0763L57.3843 21.0365L53.6568 33H49.8938L44.3203 15.25H48.3673L51.8108 27.4975L55.5383 15.25H59.1948L62.8868 27.4975L66.3658 15.25ZM80.2108 33.4615C77.6074 33.4615 75.3946 32.5622 73.5723 30.7635C71.7499 28.9648 70.8388 26.752 70.8388 24.125C70.8388 21.498 71.7499 19.2852 73.5723 17.4865C75.3946 15.6878 77.6074 14.7885 80.2108 14.7885C82.8378 14.7885 85.0506 15.6878 86.8493 17.4865C88.6716 19.2852 89.5828 21.498 89.5828 24.125C89.5828 26.752 88.6716 28.9648 86.8493 30.7635C85.0506 32.5622 82.8378 33.4615 80.2108 33.4615ZM76.2703 28.1365C77.3353 29.2015 78.6488 29.734 80.2108 29.734C81.7728 29.734 83.0863 29.2015 84.1513 28.1365C85.2163 27.0715 85.7488 25.7343 85.7488 24.125C85.7488 22.5157 85.2163 21.1785 84.1513 20.1135C83.0863 19.0485 81.7728 18.516 80.2108 18.516C78.6488 18.516 77.3353 19.0485 76.2703 20.1135C75.2053 21.1785 74.6728 22.5157 74.6728 24.125C74.6728 25.7343 75.2053 27.0715 76.2703 28.1365ZM96.1736 18.232C97.1439 16.031 98.9662 14.9305 101.641 14.9305V19.084C100.173 18.9893 98.8952 19.3443 97.8066 20.149C96.7179 20.93 96.1736 22.2317 96.1736 24.054V33H92.3396V15.25H96.1736V18.232ZM119.454 33H114.875L107.597 24.7995V33H103.763V8.15H107.597V23.0955L114.484 15.25H119.17L111.36 23.9475L119.454 33Z" fill="#5C27C0"/>
</svg>
