<svg width="185" height="152" viewBox="0 0 185 152" fill="none" xmlns="http://www.w3.org/2000/svg">
<g id="Group 39943">
<path id="Rectangle 8" d="M0.5 16C0.5 7.16345 7.66344 0 16.5 0H168.5C177.337 0 184.5 7.16344 184.5 16V136C184.5 144.837 177.337 152 168.5 152H16.5C7.66344 152 0.5 144.837 0.5 136V16Z" fill="#6D38FB"/>
<g id="Group 39938">
<g id="Group 39935">
<g id="Arrow 10">
<g id="Arrow 1">
<path id="Vector 215" d="M54.3679 103.521C64.3978 111.222 77.3599 116.237 89.6024 115.888" stroke="#BEEB42" stroke-width="4" stroke-linecap="round"/>
<path id="Vector 217" d="M84.2927 109.354C86.7349 113.278 89.8632 115.881 92.7891 115.797" stroke="#BEEB42" stroke-width="4" stroke-linecap="round"/>
<path id="Vector 218" d="M84.5823 122.717C86.8515 118.659 89.8632 115.881 92.7891 115.797" stroke="#BEEB42" stroke-width="4" stroke-linecap="round"/>
</g>
</g>
<g id="Arrow 11">
<g id="Arrow 1_2">
<path id="Vector 215_2" d="M112.284 53.9842C103.365 45.0206 91.1828 38.3304 79.0022 37.0521" stroke="white" stroke-width="4" stroke-linecap="round"/>
<path id="Vector 217_2" d="M83.3979 44.233C81.4979 40.0198 78.7426 37.0248 75.8315 36.7193" stroke="white" stroke-width="4" stroke-linecap="round"/>
<path id="Vector 218_2" d="M84.8839 30.9496C82.0962 34.6709 78.7426 37.0248 75.8315 36.7193" stroke="white" stroke-width="4" stroke-linecap="round"/>
</g>
</g>
<g id="Group 39924">
<path id="Ellipse 8" d="M74.5566 55.151C74.5566 60.3641 70.4408 64.5095 65.4623 64.5095C60.4837 64.5095 56.3679 60.3641 56.3679 55.151C56.3679 49.9378 60.4837 45.7925 65.4623 45.7925C70.4408 45.7925 74.5566 49.9378 74.5566 55.151Z" fill="#6D38FB" stroke="white" stroke-width="4"/>
<path id="Ellipse 12" d="M128.689 73.3585C128.689 78.5717 124.573 82.717 119.594 82.717C114.616 82.717 110.5 78.5717 110.5 73.3585C110.5 68.1453 114.616 64 119.594 64C124.573 64 128.689 68.1453 128.689 73.3585Z" fill="#6D38FB" stroke="white" stroke-width="4"/>
</g>
</g>
<path id="Ellipse 13" d="M89.5 93C89.5 80.8497 78.7548 71 65.5 71C52.2452 71 41.5 80.8497 41.5 93" stroke="white" stroke-width="4"/>
<path id="Ellipse 14" d="M143.5 110C143.5 97.8497 132.755 88 119.5 88C106.245 88 95.5 97.8497 95.5 110" stroke="white" stroke-width="4"/>
</g>
</g>
</svg>
