<svg width="185" height="152" viewBox="0 0 185 152" fill="none" xmlns="http://www.w3.org/2000/svg">
<g id="Group 39944">
<path id="Rectangle 9" d="M0.5 16C0.5 7.16345 7.66344 0 16.5 0H168.5C177.337 0 184.5 7.16344 184.5 16V136C184.5 144.837 177.337 152 168.5 152H16.5C7.66344 152 0.5 144.837 0.5 136V16Z" fill="#6D38FB"/>
<g id="Group 39934">
<g id="Group 39926">
<path id="Ellipse 12" d="M93.6887 58.3585C93.6887 63.5717 89.5729 67.717 84.5943 67.717C79.6158 67.717 75.5 63.5717 75.5 58.3585C75.5 53.1453 79.6158 49 84.5943 49C89.5729 49 93.6887 53.1453 93.6887 58.3585Z" fill="#6D38FB" stroke="black" stroke-width="4"/>
<path id="Ellipse 13" d="M113.5 100C113.5 85.0883 100.516 73 84.5 73C68.4837 73 55.5 85.0883 55.5 100" stroke="black" stroke-width="4"/>
</g>
<g id="Group 39927">
<path id="Ellipse 12_2" d="M142.189 63.3585C142.189 68.8367 137.86 73.217 132.594 73.217C127.329 73.217 123 68.8367 123 63.3585C123 57.8803 127.329 53.5 132.594 53.5C137.86 53.5 142.189 57.8803 142.189 63.3585Z" fill="#6D38FB" stroke="black" stroke-width="3"/>
<path id="Ellipse 13_2" d="M154.5 102C154.5 88.7452 144.203 78 131.5 78C118.797 78 113.5 83.5 110 90.5" stroke="black" stroke-width="3"/>
</g>
<g id="Group 39928">
<path id="Ellipse 12_3" d="M56.8915 74.5189C56.8915 78.6937 53.5918 82.0377 49.5708 82.0377C45.5497 82.0377 42.25 78.6937 42.25 74.5189C42.25 70.344 45.5497 67 49.5708 67C53.5918 67 56.8915 70.344 56.8915 74.5189Z" fill="#6D38FB" stroke="black" stroke-width="2"/>
<path id="Ellipse 13_3" d="M31.5 102C31.5 92.8873 40.5 82.5 55 85.5" stroke="black" stroke-width="2"/>
</g>
<g id="Group 39929">
<path id="Ellipse 12_4" d="M93.6887 58.3585C93.6887 63.5717 89.5729 67.717 84.5943 67.717C79.6158 67.717 75.5 63.5717 75.5 58.3585C75.5 53.1453 79.6158 49 84.5943 49C89.5729 49 93.6887 53.1453 93.6887 58.3585Z" fill="#6D38FB" stroke="white" stroke-width="4"/>
<path id="Ellipse 13_4" d="M113.5 100C113.5 85.0883 100.516 73 84.5 73C68.4837 73 55.5 85.0883 55.5 100" stroke="white" stroke-width="4"/>
</g>
<g id="Group 39930">
<path id="Ellipse 12_5" d="M142.189 63.3585C142.189 68.8367 137.86 73.217 132.594 73.217C127.329 73.217 123 68.8367 123 63.3585C123 57.8803 127.329 53.5 132.594 53.5C137.86 53.5 142.189 57.8803 142.189 63.3585Z" fill="#6D38FB" stroke="white" stroke-width="3"/>
<path id="Ellipse 13_5" d="M154.5 102C154.5 88.7452 144.203 78 131.5 78C118.797 78 113.5 83.5 110 90.5" stroke="white" stroke-width="3"/>
</g>
<g id="Group 39931">
<path id="Ellipse 12_6" d="M56.8915 74.5189C56.8915 78.6937 53.5918 82.0377 49.5708 82.0377C45.5497 82.0377 42.25 78.6937 42.25 74.5189C42.25 70.344 45.5497 67 49.5708 67C53.5918 67 56.8915 70.344 56.8915 74.5189Z" fill="#6D38FB" stroke="white" stroke-width="2"/>
<path id="Ellipse 13_6" d="M31.5 102C31.5 92.8873 40.5 82.5 55 85.5" stroke="white" stroke-width="2"/>
</g>
<path id="Line 13" d="M69.5 97.0182V97.0182C73.7527 100.987 80.3889 100.859 84.4856 96.7295L97.5458 83.5654" stroke="#BEEB42" stroke-width="5" stroke-linecap="round"/>
</g>
</g>
</svg>
