<svg width="73" height="72" viewBox="0 0 73 72" fill="none" xmlns="http://www.w3.org/2000/svg">
<g id="Frame 5041">
<g id="Group 289343">
<path id="Vector 455" d="M40.468 42.7872L47.8127 33.9736L68.5001 57.3541" stroke="#BEEB42" stroke-width="3" stroke-linecap="round"/>
<path id="Vector 456" d="M28.0561 28V20.4779M28.0561 20.4779L28.0561 16.6525C28.0561 15.918 27.9949 14.9999 29.1578 15C30.6756 15.0001 34.707 15 36.38 15C36.6656 15 37.1144 14.9898 37.1144 16.6525C37.1144 17.9378 37.0736 19.2028 37.1144 19.6516C37.1896 20.4779 37.2369 20.6309 35.7679 20.6309C34.299 20.6309 30.0146 20.5289 28.0561 20.4779Z" stroke="#6333E3" stroke-width="3" stroke-linecap="round"/>
<path id="Vector 457" d="M17.822 56.2521C20.4334 57.1906 26.807 58.3331 31.4096 55.3952C37.1629 51.7229 36.9181 51.3556 35.9388 48.4178C34.9595 45.4799 31.2872 44.6231 30.0631 42.4197C28.839 40.2163 25.6563 36.7888 27.0028 33.7285" stroke="#6333E3" stroke-width="2" stroke-linecap="round" stroke-dasharray="20 20"/>
<path id="Vector 454" d="M3.5 57.4763L27.6945 27.6387L52.9539 57.4763" stroke="#BEEB42" stroke-width="3" stroke-linecap="round"/>
</g>
</g>
</svg>
