<svg width="25" height="25" viewBox="0 0 25 25" fill="none" xmlns="http://www.w3.org/2000/svg">
<g id="entypo:attachment" clip-path="url(#clip0_1085_489)">
<path id="Vector" d="M7.49057 24.2602C5.93897 24.2602 4.48577 23.5942 3.43697 22.5322C1.40297 20.473 0.836569 16.879 3.68777 13.993L15.3854 2.149C16.571 0.948999 18.0794 0.484599 19.523 0.876999C20.9426 1.261 22.1042 2.4382 22.4846 3.8746C22.871 5.3386 22.4138 6.8662 21.2294 8.0662L10.0418 19.3942C9.40337 20.041 8.68097 20.4238 7.95617 20.5006C7.23737 20.5774 6.55217 20.3446 6.07217 19.8586C5.20337 18.9754 5.07857 17.3182 6.52577 15.8542L14.3834 7.8982C14.7062 7.5718 15.2294 7.5718 15.5522 7.8982C15.875 8.2246 15.875 8.755 15.5522 9.0814L7.69337 17.0386C7.01417 17.725 6.95177 18.3814 7.24097 18.6754C7.36817 18.8026 7.56017 18.8614 7.78217 18.8362C8.12177 18.8014 8.50937 18.577 8.87297 18.211L20.0606 6.8842C20.8286 6.1066 21.1226 5.1922 20.8886 4.3102C20.7716 3.87889 20.5452 3.48511 20.2313 3.16702C19.9174 2.84892 19.5267 2.6173 19.097 2.4946C18.2258 2.2582 17.321 2.557 16.553 3.3346L4.85537 15.1786C2.67617 17.3854 3.19817 19.9258 4.60457 21.3502C6.01217 22.7746 8.51897 23.305 10.6994 21.0958L22.397 9.2518C22.4732 9.17423 22.5642 9.11262 22.6645 9.07056C22.7649 9.02851 22.8726 9.00685 22.9814 9.00685C23.0902 9.00685 23.1979 9.02851 23.2982 9.07056C23.3985 9.11262 23.4895 9.17423 23.5658 9.2518C23.7211 9.40979 23.8081 9.62246 23.8081 9.844C23.8081 10.0655 23.7211 10.2782 23.5658 10.4362L11.8682 22.2802C10.4894 23.6746 8.94497 24.2602 7.49057 24.2602Z" fill="black"/>
</g>
<defs>
<clipPath id="clip0_1085_489">
<rect width="24" height="24" fill="white" transform="translate(0.768066 0.5)"/>
</clipPath>
</defs>
</svg>
